<?xml version="1.0" standalone="no"?>
<!DOCTYPE svg PUBLIC "-//W3C//DTD SVG 20010904//EN"
 "http://www.w3.org/TR/2001/REC-SVG-20010904/DTD/svg10.dtd">
<svg version="1.0" xmlns="http://www.w3.org/2000/svg"
 width="1055.000000pt" height="1055.000000pt" viewBox="0 0 1055.000000 1055.000000"
 preserveAspectRatio="xMidYMid meet">
<metadata>
Created by potrace 1.14, written by Peter Selinger 2001-2017
</metadata>
<g transform="translate(0.000000,1055.000000) scale(0.100000,-0.100000)"
fill="#000000" stroke="none">
<path d="M2987 9388 c-10 -5 -17 -7 -17 -4 0 3 -25 -5 -55 -19 -30 -13 -55
-21 -55 -18 0 3 -6 1 -12 -5 -7 -5 -58 -29 -113 -52 -238 -100 -672 -319 -822
-413 -21 -13 -48 -27 -60 -31 -13 -4 -23 -12 -23 -17 0 -5 -5 -9 -10 -9 -6 0
-23 -8 -38 -19 -15 -10 -54 -35 -87 -56 -55 -35 -196 -129 -220 -147 -5 -4
-53 -39 -105 -77 -52 -38 -99 -74 -105 -78 -5 -5 -50 -42 -100 -83 -102 -85
-92 -76 -211 -191 -115 -111 -177 -177 -248 -264 -32 -38 -65 -79 -75 -90 -10
-11 -26 -33 -37 -50 -10 -16 -21 -32 -25 -35 -10 -8 -103 -150 -151 -230 -90
-150 -221 -451 -243 -560 -2 -8 -12 -51 -23 -95 -11 -44 -23 -97 -26 -117 -3
-21 -9 -55 -12 -75 -3 -21 -8 -51 -11 -68 -10 -45 -9 -461 0 -530 9 -65 13
-94 28 -170 6 -27 10 -58 10 -67 0 -10 5 -20 10 -23 5 -4 7 -10 4 -15 -12 -20
93 -328 169 -492 14 -31 26 -62 26 -67 0 -6 4 -11 9 -11 5 0 -6 -26 -25 -57
-19 -31 -34 -63 -34 -70 0 -7 -4 -13 -10 -13 -5 0 -9 -3 -8 -7 1 -5 -8 -35
-20 -67 -22 -56 -57 -177 -68 -228 -15 -76 -26 -162 -29 -225 -2 -40 -5 -76
-7 -80 -4 -7 -3 -88 1 -158 1 -16 2 -73 2 -125 0 -79 -1 -461 -2 -495 0 -5 0
-111 0 -235 1 -124 1 -232 0 -240 0 -8 0 -116 0 -240 0 -124 0 -232 0 -240 0
-8 0 -116 0 -240 1 -124 1 -232 0 -240 0 -8 0 -116 0 -240 0 -124 0 -232 0
-240 0 -8 0 -116 0 -240 1 -124 0 -232 0 -240 0 -8 0 -45 1 -82 l2 -68 364 0
364 0 0 68 c0 37 2 812 3 1722 3 1653 3 1655 24 1728 32 109 69 178 134 245
65 68 93 118 109 192 24 107 3 197 -69 309 -23 34 -41 67 -41 73 0 6 -4 13 -8
15 -11 4 -86 163 -113 236 -18 52 -39 114 -54 167 -5 16 -24 108 -30 140 -3
17 -7 40 -9 51 -10 50 -22 263 -16 284 1 3 3 32 5 65 8 145 55 341 115 480 39
92 105 220 122 239 10 11 18 25 18 32 0 7 3 14 8 16 4 2 28 35 55 74 26 39 55
80 65 92 9 11 33 40 52 64 71 88 326 335 425 411 6 4 26 21 45 37 19 16 38 30
42 30 4 0 18 10 31 23 13 12 30 27 39 32 66 43 104 69 108 74 5 6 46 34 82 56
9 5 88 53 175 106 87 53 192 113 233 135 41 21 78 43 81 47 3 5 8 8 10 7 2 0
87 39 189 88 283 137 349 165 363 154 7 -5 29 -15 50 -21 20 -7 37 -16 37 -20
0 -4 6 -8 13 -8 30 0 465 -217 625 -312 29 -17 55 -31 57 -31 8 0 110 -65 113
-72 2 -5 8 -8 13 -8 12 0 248 -156 328 -217 218 -165 459 -390 564 -525 12
-16 32 -41 45 -56 12 -15 35 -45 50 -67 15 -22 30 -41 35 -43 4 -2 7 -8 7 -12
0 -5 14 -30 32 -56 100 -148 207 -414 234 -583 3 -18 7 -43 10 -54 25 -132 19
-388 -12 -528 -3 -13 -8 -40 -11 -59 -19 -125 -164 -469 -239 -567 -49 -65
-67 -121 -68 -218 0 -82 3 -96 32 -157 34 -69 123 -163 207 -216 22 -14 42
-28 45 -32 11 -14 150 -88 240 -127 90 -40 273 -105 350 -125 19 -5 51 -14 70
-19 19 -5 46 -12 60 -15 14 -3 43 -10 65 -16 22 -6 54 -12 70 -15 17 -2 48 -9
70 -15 22 -6 49 -12 60 -13 22 -3 82 -13 130 -22 46 -7 66 -11 115 -17 25 -3
56 -8 70 -11 45 -8 114 -17 155 -20 22 -1 56 -5 75 -8 19 -4 64 -9 100 -12 36
-3 83 -8 105 -10 22 -3 63 -7 92 -9 28 -2 57 -7 62 -11 6 -3 11 -1 11 5 0 6 5
8 12 4 6 -4 34 -8 62 -10 117 -7 196 -12 286 -19 52 -3 132 -8 178 -9 45 -2
84 -5 87 -8 3 -3 23 -2 45 2 22 4 40 5 40 1 0 -3 51 -7 113 -8 61 -1 227 -5
367 -8 330 -8 2073 -5 2146 4 7 1 11 112 11 364 l0 362 -341 -2 c-952 -7
-1848 -2 -2176 11 -274 12 -469 22 -595 31 -33 3 -91 7 -130 9 -69 5 -144 11
-240 22 -27 3 -68 7 -90 9 -50 4 -208 24 -255 32 -19 3 -48 7 -65 8 -16 2 -41
6 -55 8 -14 3 -47 9 -75 13 -63 10 -69 11 -75 14 -3 1 -16 3 -30 4 -14 2 -41
7 -60 11 -19 5 -37 9 -40 10 -18 3 -86 19 -90 20 -3 1 -23 5 -45 10 -22 5 -42
10 -45 10 -3 1 -25 7 -50 14 -25 7 -47 13 -50 13 -4 0 -39 12 -95 34 -11 4
-22 8 -25 9 -49 17 -63 27 -50 35 8 6 11 10 6 10 -5 0 -4 6 1 13 32 39 158
425 168 511 1 12 5 30 8 41 3 11 8 43 12 70 3 28 8 61 10 75 12 81 26 366 17
375 -2 1 -5 38 -7 81 -3 44 -7 93 -9 109 -2 17 -7 46 -9 65 -11 72 -19 114
-27 136 -5 12 -6 24 -4 27 3 3 1 14 -4 24 -6 10 -12 32 -15 48 -3 17 -15 62
-28 100 -12 39 -24 75 -25 80 -6 25 -77 191 -86 203 -6 6 -7 12 -2 12 5 0 5 4
-1 8 -5 4 -27 41 -47 82 -21 41 -48 93 -60 115 -42 73 -172 265 -180 265 -4 0
-8 5 -8 11 0 10 -53 78 -105 135 -5 6 -29 34 -53 62 -55 65 -232 243 -308 309
-32 28 -70 61 -84 73 -14 12 -41 34 -60 49 -19 14 -48 38 -65 53 -16 16 -33
28 -36 28 -3 0 -19 11 -35 25 -33 29 -109 82 -244 172 -52 34 -99 66 -105 71
-17 13 -146 92 -150 92 -3 0 -33 17 -67 38 -202 123 -691 364 -908 448 -25 9
-49 20 -55 24 -47 35 -229 60 -268 38z"/>
<path d="M2158 5275 c-3 -4 -28 -8 -55 -11 -26 -2 -59 -6 -73 -9 -14 -3 -34
-7 -45 -9 -48 -9 -114 -30 -166 -52 -53 -22 -178 -90 -189 -103 -3 -3 -21 -18
-40 -32 -19 -14 -61 -51 -92 -82 -172 -169 -276 -392 -293 -624 -4 -42 -8 -80
-11 -84 -2 -4 0 -10 6 -14 6 -4 7 -12 1 -24 -5 -9 -6 -23 -2 -30 5 -7 5 -29 1
-50 -4 -20 -3 -46 0 -57 4 -10 4 -26 0 -34 -4 -8 -4 -24 0 -35 4 -11 4 -34 0
-51 -4 -18 -4 -38 1 -45 4 -7 4 -20 0 -28 -5 -9 -5 -25 -1 -36 4 -11 4 -31 0
-45 -4 -14 -4 -34 0 -45 4 -11 4 -27 0 -35 -4 -8 -4 -24 0 -35 4 -11 4 -34 0
-51 -4 -18 -4 -38 1 -45 4 -7 4 -20 0 -28 -5 -9 -5 -25 -1 -36 4 -11 4 -31 0
-45 -4 -14 -4 -34 0 -45 4 -11 4 -27 0 -35 -4 -8 -4 -24 0 -35 4 -11 4 -34 0
-51 -4 -18 -4 -38 1 -45 4 -7 4 -20 0 -28 -5 -9 -5 -25 -1 -36 4 -11 4 -31 0
-45 -4 -14 -4 -34 0 -45 4 -11 4 -27 0 -35 -4 -8 -4 -24 0 -35 4 -11 4 -34 0
-51 -4 -18 -4 -38 1 -45 4 -7 4 -20 0 -28 -5 -9 -5 -25 -1 -36 4 -11 4 -29 0
-41 -5 -11 -4 -27 1 -36 6 -11 5 -19 -1 -23 -7 -4 -7 -12 0 -25 7 -13 7 -21 0
-25 -6 -4 -7 -12 -1 -22 5 -9 5 -29 0 -45 -4 -17 -4 -26 2 -23 5 4 6 -3 0 -17
-5 -13 -5 -33 0 -45 5 -13 5 -23 1 -23 -5 0 -7 -15 -5 -33 7 -66 8 -117 3
-117 -7 0 -3 -76 4 -89 4 -5 2 -12 -4 -16 -7 -4 -7 -12 0 -25 7 -13 7 -21 0
-25 -6 -4 -7 -12 -1 -22 5 -9 5 -29 0 -45 -4 -17 -4 -26 2 -23 5 4 6 -3 0 -17
-5 -13 -5 -33 0 -46 5 -12 5 -22 1 -22 -5 0 -7 -15 -5 -32 7 -67 8 -118 3
-118 -7 0 -3 -76 4 -89 4 -5 2 -12 -4 -16 -7 -4 -7 -12 0 -25 7 -13 7 -21 0
-25 -6 -4 -7 -12 -1 -22 5 -9 5 -29 0 -45 -4 -17 -4 -26 2 -23 5 4 5 -3 0 -17
-5 -13 -5 -33 0 -45 5 -13 5 -23 1 -23 -5 0 -7 -15 -5 -32 7 -67 8 -118 3
-118 -7 0 -4 -89 3 -97 4 -3 2 -13 -3 -23 -5 -10 -7 -20 -4 -23 7 -7 11 -97 4
-97 -7 0 -5 -54 3 -67 4 -6 51 -9 114 -8 59 0 116 -3 126 -7 9 -5 17 -5 17 -1
0 10 292 9 308 -1 7 -4 12 -3 12 1 0 5 51 8 113 8 l112 0 2 385 c1 212 2 393
2 403 1 16 17 17 201 17 l200 0 2 -403 3 -402 70 -1 c39 0 76 -4 83 -8 7 -4
12 -4 12 1 0 12 403 10 412 -2 5 -7 8 -7 8 0 0 6 41 10 105 9 87 0 105 2 109
15 2 9 3 736 2 1616 -2 1224 -5 1615 -15 1665 -15 80 -47 181 -74 235 -11 22
-18 40 -16 40 4 0 -78 122 -108 160 -191 238 -480 384 -755 381 -43 -1 -79 3
-81 7 -1 5 -5 5 -9 2z m142 -835 c40 -21 85 -75 98 -118 14 -45 18 -1552 5
-1552 -5 -1 -95 -2 -201 -3 -186 -2 -192 -1 -193 18 0 11 -1 358 -1 770 -1
694 0 753 16 787 51 107 175 151 276 98z"/>
<path d="M7704 3979 c-239 -52 -454 -225 -559 -451 -34 -75 -68 -194 -59 -209
2 -4 0 -10 -4 -13 -5 -3 -9 -478 -10 -1079 l0 -1074 57 1 c31 1 64 -2 74 -6 9
-5 17 -5 17 -1 0 10 292 9 308 -1 7 -4 12 -3 12 2 0 5 38 7 85 6 96 -4 94 -6
93 91 0 28 1 61 1 75 1 14 1 120 0 235 0 116 0 217 0 226 1 15 21 17 161 18
l160 1 -1 -54 c-1 -29 1 -58 5 -64 3 -6 0 -13 -6 -15 -10 -4 -10 -6 -1 -6 9
-1 10 -8 4 -23 -5 -13 -5 -32 -1 -43 4 -11 4 -31 0 -44 -3 -13 -3 -46 0 -72 4
-31 2 -50 -4 -53 -7 -3 -6 -5 1 -5 9 -1 10 -8 4 -23 -5 -13 -5 -32 -1 -43 4
-11 5 -26 2 -33 -2 -8 -5 -48 -6 -91 l-1 -77 325 0 325 1 -2 1065 c-1 586 -3
1079 -6 1096 -11 77 -32 145 -70 224 -23 47 -43 87 -46 90 -4 3 -19 23 -36 45
-57 78 -212 215 -243 215 -6 0 -12 4 -14 8 -3 8 -121 61 -148 66 -8 2 -22 6
-30 9 -64 26 -280 29 -386 6z m211 -633 c34 -6 71 -32 97 -67 22 -29 41 -168
24 -170 -6 0 -6 -3 1 -5 8 -4 9 -13 4 -27 -5 -12 -5 -31 -1 -42 4 -11 5 -24 2
-29 -4 -8 -4 -47 1 -169 1 -26 -2 -47 -8 -48 -5 0 -5 -3 2 -5 8 -4 9 -13 4
-27 -5 -12 -5 -31 -1 -42 4 -11 4 -31 0 -44 -3 -13 -3 -46 0 -71 3 -26 3 -56
-1 -66 -3 -11 -3 -29 2 -41 5 -14 5 -23 -1 -23 -5 0 -7 -6 -5 -13 4 -9 -30
-12 -155 -12 -99 0 -160 4 -161 10 -5 52 -3 275 3 293 4 12 4 22 0 22 -4 0 -6
35 -4 78 2 42 3 84 2 92 -2 69 0 278 4 290 12 43 21 57 50 82 18 15 45 29 61
32 15 3 30 7 33 10 2 3 8 4 12 1 3 -2 19 -6 35 -9z"/>
<path d="M3504 3930 l-50 -5 0 -1382 c-1 -983 2 -1383 10 -1386 6 -2 54 -3
106 -3 52 1 103 -2 113 -6 9 -5 17 -5 17 -1 0 10 452 9 468 -1 7 -4 12 -4 12
1 0 4 48 9 108 10 82 1 128 8 197 28 90 27 211 86 252 124 12 12 25 21 28 21
8 0 145 143 145 151 0 4 6 14 13 21 7 7 24 33 38 58 13 25 29 48 34 52 6 4 6
8 1 8 -5 0 -4 6 2 13 8 10 40 105 48 142 1 6 5 28 9 50 4 22 9 339 9 705 2
661 -2 751 -33 833 -6 15 -9 27 -7 27 7 0 -55 122 -89 175 -39 61 -165 195
-183 195 -6 0 -12 4 -12 9 0 16 -136 90 -216 117 -86 29 -252 56 -260 42 -3
-5 -9 -6 -13 -4 -6 4 -103 7 -173 5 -10 0 -120 0 -244 1 -125 0 -229 -1 -231
-4 -3 -3 -15 -2 -27 2 -11 4 -44 5 -72 2z m839 -670 c17 -12 41 -34 52 -49 19
-25 20 -44 23 -651 3 -656 3 -658 -42 -709 -34 -39 -77 -51 -181 -51 -92 0
-95 1 -96 23 -4 148 0 1447 4 1454 4 6 50 9 107 8 85 -2 105 -6 133 -25z"/>
<path d="M5334 3931 c-2 -2 -21 -4 -42 -3 l-38 2 1 -1388 0 -1387 43 -6 c23
-3 44 -3 47 -1 5 5 135 4 177 -2 14 -1 32 0 38 4 6 4 31 4 56 0 24 -4 46 -4
49 -1 2 4 31 4 65 1 33 -3 65 -3 71 1 6 3 26 3 44 -1 34 -8 57 -1 54 16 -1 5
-1 145 0 310 l1 302 160 1 160 1 1 -52 c0 -29 1 -171 1 -315 l0 -262 37 0 c20
0 48 -2 63 -4 14 -2 32 -1 38 3 6 4 31 4 56 0 24 -4 47 -3 50 2 3 4 9 6 13 4
6 -4 86 -6 171 -6 8 1 38 0 65 0 28 0 60 0 72 0 12 0 26 0 30 -1 4 -1 18 -1
29 0 l22 1 0 1389 0 1390 -21 0 c-12 0 -33 0 -47 0 -14 0 -29 -1 -35 0 -16 1
-146 1 -304 2 -79 0 -146 0 -150 1 -3 0 -10 -1 -16 -2 -5 -1 -23 -3 -40 -3
l-30 -2 -1 -742 c-1 -407 -4 -745 -7 -750 -4 -6 -75 -9 -159 -9 l-153 1 -3
753 -2 752 -173 1 c-94 1 -176 0 -182 -1 -5 -1 -19 -2 -30 -1 -120 5 -177 5
-181 2z"/>
<path d="M8899 3926 c0 -1 -2 -623 -2 -1384 -2 -1375 -2 -1382 18 -1383 80 -5
618 -3 621 2 2 4 4 322 4 708 0 385 4 701 8 701 8 -1 98 -211 94 -222 -1 -5 3
-8 8 -8 6 0 10 -5 10 -10 0 -9 160 -389 194 -460 8 -18 11 -124 11 -367 0
-297 2 -342 15 -345 8 -2 152 -3 320 -3 l305 0 3 1386 2 1386 -323 0 -322 0 0
-373 c0 -206 -2 -374 -5 -374 -5 0 -8 7 -50 105 -39 90 -43 100 -45 105 -1 3
-7 19 -14 35 -7 17 -11 30 -9 30 2 1 -4 12 -13 25 -8 14 -23 43 -31 65 -9 22
-28 67 -43 100 -14 33 -30 69 -35 80 -4 11 -17 40 -27 65 -11 25 -28 66 -39
91 l-18 47 -318 -1 c-175 0 -318 -1 -319 -1z"/>
</g>
</svg>
