<svg viewBox="0 0 427.22 539.77" xmlns="http://www.w3.org/2000/svg"><linearGradient id="a" gradientUnits="userSpaceOnUse" x1="299.76" x2="299.76" y1="342.85" y2="34.79"><stop offset="0" stop-color="#83ccab"/><stop offset="1" stop-color="#37998d"/></linearGradient><path d="m117.23 408.79v-3.24a12.58 12.58 0 0 1 12.58-12.55h15.27a3 3 0 0 0 3-3v-2a3 3 0 0 0 -3-3 14.2 14.2 0 0 1 -14.2-14.2 14.2 14.2 0 0 1 14.2-14.2h71.74a14.2 14.2 0 0 1 14.2 14.2 14.19 14.19 0 0 1 -9.81 13.5 4.44 4.44 0 0 0 -3.1 4.21 4.4 4.4 0 0 0 4.41 4.41h26.07a12.59 12.59 0 0 1 12.58 12.58v3.24a12.55 12.55 0 0 1 -4.29 9.46h20.44a14.2 14.2 0 0 1 14.2-14.2h59.33a3.34 3.34 0 1 0 0-6.67h-9.63a14.19 14.19 0 0 1 -14.22-14.15 14.19 14.19 0 0 1 14.22-14.18h24.5a14.12 14.12 0 0 1 -2-7.22 14.19 14.19 0 0 1 14.19-14.2h98.41a14.2 14.2 0 0 1 14.2 14.2 14 14 0 0 1 -2 7.22h24.58v-190a30.08 30.08 0 0 0 -13.77-25.29l-183.24-118.42a30.1 30.1 0 0 0 -32.66 0l-183.29 118.37a30.1 30.1 0 0 0 -13.77 25.34v239.3h35.14a12.58 12.58 0 0 1 -4.28-9.51z" fill="url(#a)" transform="translate(-85.93 -30.47)"/><path d="m488.57 210.09a14.1 14.1 0 0 0 2-7.23 14.2 14.2 0 0 0 -14.2-14.2h-98.43a14.19 14.19 0 0 0 -14.19 14.2 14.19 14.19 0 0 0 2 7.23h-24.5a14.19 14.19 0 0 0 -14.25 14.19 14.19 14.19 0 0 0 14.19 14.2h9.63a3.34 3.34 0 1 1 0 6.67h-42.61a31.59 31.59 0 1 0 -60.66-12.36v1.28h-25.03a4.4 4.4 0 0 1 -4.41-4.41 4.42 4.42 0 0 1 3.1-4.2 14.21 14.21 0 0 0 9.79-13.46 14.2 14.2 0 0 0 -14.2-14.2h-25.89a19.23 19.23 0 0 0 -38.45 0h-7.38a14.2 14.2 0 0 0 -14.2 14.2 14.2 14.2 0 0 0 14.2 14.2 3 3 0 0 1 3 3v1.94a3 3 0 0 1 -3 3h-15.27a12.58 12.58 0 0 0 -12.58 12.58v3.24a12.58 12.58 0 0 0 4.28 9.46h-35.14v109c0 10.22 197.06 38.18 197.06 38.18a30.1 30.1 0 0 0 32.66 0s197.06-40.6 197.06-50.87v-145.64zm-229.66 47a32.28 32.28 0 0 0 3.13 2.3h-5.16a13.07 13.07 0 0 0 2.03-2.34z" fill="#c6e6ab" transform="translate(-85.93 -30.47)"/><path d="m124.79 187.85h20.11c4.16 0 7.54-4.37 7.54-9.75s-3.38-9.75-7.54-9.75h-20.11c-4.16 0-7.54 4.36-7.54 9.75s3.38 9.75 7.54 9.75z" fill="#c6e6ab" transform="translate(-85.93 -30.47)"/><path d="m167.94 173.89h14.49c3 0 5.43-3.15 5.43-7 0-3.88-2.43-7-5.43-7h-14.49c-3 0-5.43 3.14-5.43 7 0 3.85 2.43 7 5.43 7z" fill="#c6e6ab" transform="translate(-85.93 -30.47)"/><rect fill="#ffefad" height="19.8" rx="9.9" width="46.21" x="180.87" y="148.01"/><g transform="translate(-85.93 -30.47)"><path d="m199.42 231.91h20.11c4.17 0 7.54-4.37 7.54-9.75s-3.37-9.75-7.54-9.75h-20.11c-4.16 0-7.53 4.36-7.53 9.75s3.37 9.75 7.53 9.75z" fill="#ffefad"/><path d="m501.05 346.09a13.58 13.58 0 0 0 4.63-10.23v-3.5a13.6 13.6 0 0 0 -13.6-13.6h-16.51a3.24 3.24 0 0 1 -3.24-3.23v-2.1a3.24 3.24 0 0 1 3.25-3.24 15.36 15.36 0 0 0 15.34-15.69 15.62 15.62 0 0 0 -15.76-15h-76.73a15.64 15.64 0 0 0 -15.79 15.32 15.37 15.37 0 0 0 10.45 14.58 5 5 0 0 1 3.48 4 4.76 4.76 0 0 1 -4.73 5.33h-28.19a13.6 13.6 0 0 0 -13.6 13.6v3.5a13.59 13.59 0 0 0 4.64 10.23h-22.11a15.36 15.36 0 0 0 -15.35-15.36h-64a3.74 3.74 0 0 1 -3.8-3.41 3.59 3.59 0 0 1 3.6-3.79h10c8.26 0 15.38-6.36 15.76-14.61a15.35 15.35 0 0 0 -15.33-16.1h-26.46a15.23 15.23 0 0 0 2.09-9 15.6 15.6 0 0 0 -15.7-14.14h-16.5a11.58 11.58 0 0 1 -10.83-7.22 38.57 38.57 0 0 0 -72.75 2.82 6.14 6.14 0 0 1 -5.84 4.4h-.08a15.35 15.35 0 0 0 -15.39 15.35 15.33 15.33 0 0 0 2.13 7.81h-17.76v130l426.72-1.06v-75.66z" fill="#ffefad"/><path d="m356.33 218.11h6.91a4.32 4.32 0 0 1 4.36 3.79 4.2 4.2 0 0 1 -4.18 4.61h-60.68a12.71 12.71 0 0 0 -12.84 12.2 12.44 12.44 0 0 0 12.43 12.66h98.73a7.9 7.9 0 0 0 -7.89 8.43 8.09 8.09 0 0 0 8.16 7.38h51a8.09 8.09 0 0 0 8.16-7.38 7.9 7.9 0 0 0 -7.89-8.43h6.59a12.71 12.71 0 0 0 12.81-12.2 12.42 12.42 0 0 0 -12.42-12.66h-8.18a4.63 4.63 0 0 1 -4.65-3.81 4.52 4.52 0 0 1 3.45-5.07 16.26 16.26 0 0 0 5.47-29.08 8 8 0 0 1 -3.23-5.32 28.41 28.41 0 0 0 -50.67-12.57 7.53 7.53 0 0 1 -7.36 3 24.41 24.41 0 0 0 -23.53 8.47 9.62 9.62 0 0 1 -7.43 3.47h-6.66c-8.76 0-16.3 6.73-16.71 15.48a16.26 16.26 0 0 0 16.25 17.03z" fill="#ffefad"/><path d="m488.57 369a14 14 0 0 0 2-7.22 14.2 14.2 0 0 0 -14.2-14.2h-2.49a61.13 61.13 0 0 0 -120.26 21.42h-12.4a14.19 14.19 0 0 0 -14.22 14.18 14.19 14.19 0 0 0 14.19 14.2h9.63a3.34 3.34 0 1 1 0 6.67h-59.3a14.2 14.2 0 0 0 -14.2 14.2h-20.44a12.55 12.55 0 0 0 4.29-9.46v-3.24a12.59 12.59 0 0 0 -12.58-12.55h-26.07a4.41 4.41 0 0 1 -1.31-8.62 14.19 14.19 0 0 0 9.81-13.5 14.2 14.2 0 0 0 -14.2-14.2h-71.74a14.2 14.2 0 0 0 -14.2 14.2 14 14 0 0 0 2 7.21 39.17 39.17 0 0 0 -8.37-.92 38.57 38.57 0 0 0 -38.57 38.58 39.05 39.05 0 0 0 .44 5.86v.2a30.1 30.1 0 0 0 13.77 25.28l183.28 118.34a30.1 30.1 0 0 0 32.66 0l183.29-118.37a30.07 30.07 0 0 0 13.77-25.28v-52.78z" fill="#ffaa3d"/><path d="m124.79 346.74h20.11c4.16 0 7.54-4.36 7.54-9.75 0-5.38-3.38-9.75-7.54-9.75h-20.11c-4.16 0-7.54 4.37-7.54 9.75 0 5.39 3.38 9.75 7.54 9.75z" fill="#ffaa3d"/><path d="m167.94 332.78h14.49c3 0 5.43-3.14 5.43-7s-2.43-7-5.43-7h-14.49c-3 0-5.43 3.14-5.43 7s2.43 7 5.43 7z" fill="#ffaa3d"/><path d="m434.19 488.17a23.09 23.09 0 0 0 10.51-19.37v-118.68a23.09 23.09 0 0 0 -11.55-20l-121.83-70.36a23.16 23.16 0 0 0 -11.56-3.09v310.38a44.37 44.37 0 0 0 22.6-6.18z" fill="#2e2042"/><path d="m162.51 356.5a23.11 23.11 0 0 1 11.55-20l121.84-70.35a23.11 23.11 0 0 1 3.86-1.77v-7.71a23.13 23.13 0 0 0 -11.55 3.09l-121.83 70.35a23.09 23.09 0 0 0 -11.56 20v118.69a23.1 23.1 0 0 0 10.52 19.37l2.25 1.47a23.14 23.14 0 0 1 -5.08-14.46z" fill="#5c4a82"/><path d="m299.76 567.05v-302.67a23.11 23.11 0 0 0 -3.86 1.77l-121.84 70.34a23.11 23.11 0 0 0 -11.55 20v118.69a23.14 23.14 0 0 0 5.08 14.46l109.58 71.23a44.36 44.36 0 0 0 22.59 6.18z" fill="#3e2e59"/></g><path d="m213.83 292.27-144.94 69.41v-20.35l144.94-69.4z" fill="#fbb040"/><path d="m213.83 292.27 144.94 69.41v-20.35l-144.94-69.4z" fill="#e28340"/></svg>