<svg enable-background="new 0 0 1000 1000" viewBox="0 0 1000 1000" xmlns="http://www.w3.org/2000/svg"><path d="m576.6 285.6c-12 0-22.8 4.7-31 12.2l-.1-.1-183.7 168.4c-9.5 8.7-14.9 21-14.9 33.9s5.4 25.1 14.9 33.9l183.8 168.4.1-.1c8.2 7.5 19 12.2 31 12.2 25.4 0 45.9-20.6 45.9-45.9 0-13.4-5.8-25.4-15-33.8l.1-.1-146.9-134.6 146.8-134.6-.1-.1c9.2-8.4 15-20.3 15-33.7 0-25.4-20.6-46-45.9-46zm-76.6-275.6c-270.6 0-490 219.4-490 490s219.4 490 490 490 490-219.4 490-490-219.4-490-490-490zm0 888.1c-219.5 0-398.1-178.6-398.1-398.1s178.6-398.1 398.1-398.1 398.1 178.6 398.1 398.1-178.6 398.1-398.1 398.1z"/></svg>