<svg height="120" viewBox="0 0 104 120" width="104" xmlns="http://www.w3.org/2000/svg"><path d="m104 90-52 30-52-30v-60l52-30 52 30z" fill="#f7f300"/><path d="m87.25 20.34v78.97l-87.24-69.31 51.99-30z" fill="#f7f300"/><path d="m84.37 18.68 2.88 1.66v78.97l-87.24-69.31v-.01l-.01.01v60l52 30 52-30v-60z" fill="#155eac"/><path d="m87.25 20.34v78.97l-35.25-28v48.69l52-30v-60z" fill="#004fa4"/><path d="m87.25 20.34-35.25-20.34v71.31l35.25 28z" fill="#f7d500"/><g fill="#fff"><path d="m54.24 78.45h-3.69l-1.15-3.52-1.13 3.52h-3.7l2.99 2.18-1.14 3.51 2.98-2.17 2.99 2.17-1.14-3.51z"/><path d="m44.45 70.2h-3.69l-1.14-3.51-1.14 3.51h-3.69l2.99 2.18-1.14 3.52 2.98-2.18 2.99 2.18-1.14-3.52z"/><path d="m33.84 61.96h-3.69l-1.14-3.52-1.14 3.52h-3.69l2.98 2.17-1.14 3.52 2.99-2.18 2.98 2.18-1.14-3.52z"/><path d="m23.34 53.71h-3.7l-1.14-3.52-1.14 3.52h-3.69l2.99 2.17-1.14 3.52 2.98-2.17 2.99 2.17-1.14-3.52z"/><path d="m14.33 45.46h-3.69l-1.14-3.52-1.14 3.52h-3.69l2.98 2.18-1.14 3.52 2.99-2.18 2.98 2.18-1.14-3.52z"/><path d="m4.6 38.05h-3.69l-.91-2.82v6.5l2.76 2.01-1.14-3.52z"/><path d="m64.02 86.7h-3.69l-1.14-3.52-1.14 3.52h-3.69l2.98 2.17-1.14 3.52 2.99-2.17 2.98 2.17-1.14-3.52z"/><path d="m73.8 94.94h-3.69l-1.14-3.51-1.14 3.51h-3.69l2.98 2.18-1.14 3.52 2.99-2.18 2.98 2.18-1.14-3.52z"/><path d="m82.62 102.36h-2.62l-1.14-3.52-1.14 3.52h-3.69l2.99 2.17-.41 1.27z"/></g></svg>