<svg viewBox="0 0 951 776.54" xmlns="http://www.w3.org/2000/svg"><path d="m1760.25 812.37h100.89s52.48-13.06 63.22 41.9 17.49 213.7 17.49 213.7l33.65 441.27h-746.66s-21.52 5.39-25.55-55.15-76.7-622.89-76.7-622.89 1.35-18.85 20.19-20.19 613.47 1.36 613.47 1.36z" fill="#c7c2c2" transform="translate(-1024.5 -759.73)"/><path d="m1937.09 980.58s-790.89 3.54-790.66 5.37-19-148-19-148-3.58-27 26-27.14 733.57 1.51 733.57 1.51 29-4.38 35.45 34.37 14.64 133.89 14.64 133.89z" fill="#cc8946" transform="translate(-1024.5 -759.73)"/><path d="m781.05 772.62-419.94-96.76 56.22-104.91 533.67 178.56z" fill="#8b8a88"/><g transform="translate(-1024.5 -759.73)"><path d="m1264 839.27h-100.93s-52.47-13.06-63.24 41.9-17.48 213.71-17.48 213.71l-33.63 441.27h746.66s21.51 5.38 25.55-55.16 76.68-622.89 76.68-622.89-1.34-18.84-20.18-20.18-613.43 1.35-613.43 1.35z" fill="#e6dad2"/><path d="m1253.21 828.51h-100.91s-52.47-13.06-63.23 41.9-17.48 213.71-17.48 213.71l-33.59 441.27h746.67s21.52 5.38 25.55-55.16 76.69-622.89 76.69-622.89-1.36-18.85-20.18-20.19-613.52 1.36-613.52 1.36z" fill="#e1d4cc"/><path d="m1239.75 817.74-101.91 3.26s-51.45-16.27-62.22 38.69-17.49 213.71-17.49 213.71l-33.63 441.27h746.66s21.53 5.38 25.56-55.16 76.68-622.89 76.68-622.89-1.35-18.85-20.18-20.19-613.47 1.31-613.47 1.31z" fill="#ffeee3"/><path d="m1851.88 816.22c-29.62-.17-733.51 1.49-733.51 1.49s-29-4.39-35.47 34.36-14.61 133.93-14.61 133.93 790.89 3.54 790.65 5.38 19-148 19-148 3.54-26.99-26.06-27.16zm-725.63 103.36c3.43 0-15.79-7.07-15.79-15.8a15.8 15.8 0 1 1 15.79 15.8zm74.52 0a15.8 15.8 0 1 1 15.8-15.8 15.79 15.79 0 0 1 -15.8 15.8zm118.39 0a15.8 15.8 0 1 1 15.8-15.8 15.8 15.8 0 0 1 -15.8 15.8zm86.09 0a15.8 15.8 0 1 1 15.81-15.8 15.8 15.8 0 0 1 -15.81 15.8zm113 0a15.8 15.8 0 1 1 15.8-15.8 15.8 15.8 0 0 1 -15.79 15.8zm70.79 0a15.8 15.8 0 1 1 15.79-15.8 15.81 15.81 0 0 1 -15.78 15.8zm113 0a15.8 15.8 0 1 1 15.81-15.8 15.8 15.8 0 0 1 -15.85 15.8zm80.73 0a15.8 15.8 0 1 1 15.81-15.8 15.8 15.8 0 0 1 -15.81 15.8z" fill="#de9d53"/><path d="m1134.19 915.36 5.31-6.69v-6.13s-48.54-47.37-33.13-85.39 88-77 87.17 3.28l27.78-.38s-5.35-54.65-56.72-59.92-89.9 43.29-80.49 88.7 32.96 59.17 50.08 66.53z" fill="#9f4f29"/><path d="m1209.52 915.36 5.32-6.69v-6.13s-48.52-47.37-33.1-85.39 88-77 87.17 3.28l27.77-.38s-5.34-54.65-56.73-59.92-89.9 43.29-80.48 88.7 32.94 59.17 50.05 66.53z" fill="#9f4f29"/><path d="m1327.92 915.36 5.31-6.69v-6.13s-48.52-47.37-33.11-85.39 88-77 87.16 3.28l27.8-.38s-5.36-54.65-56.75-59.92-89.89 43.29-80.48 88.7 32.95 59.17 50.07 66.53z" fill="#9f4f29"/><path d="m1414 915.36 5.3-6.69v-6.13s-48.53-47.37-33.11-85.39 88-77 87.16 3.28l27.78-.38s-5.34-54.65-56.73-59.92-89.9 43.29-80.48 88.7 32.98 59.17 50.08 66.53z" fill="#9f4f29"/><path d="m1527 915.36 5.3-6.69v-6.13s-48.52-47.37-33.12-85.39 88-77 87.17 3.28l27.78-.38s-5.35-54.65-56.73-59.92-89.89 43.29-80.48 88.7 32.98 59.17 50.08 66.53z" fill="#9f4f29"/><path d="m1597 915.36 5.3-6.69v-6.13s-48.52-47.37-33.11-85.39 88-77 87.17 3.28l27.77-.38s-5.34-54.65-56.72-59.92-89.9 43.29-80.48 88.7 32.93 59.17 50.07 66.53z" fill="#9f4f29"/><path d="m1710 915.36 5.31-6.69v-6.13s-48.52-47.37-33.1-85.39 88-77 87.17 3.28l27.76-.38s-5.34-54.65-56.72-59.92-89.89 43.29-80.48 88.7 32.94 59.17 50.06 66.53z" fill="#9f4f29"/><path d="m1790.71 915.36 5.31-6.69v-6.13s-48.53-47.37-33.13-85.39 88-77 87.17 3.28l27.78-.38s-5.34-54.65-56.73-59.92-89.89 43.29-80.48 88.7 32.96 59.17 50.08 66.53z" fill="#9f4f29"/><path d="m1475.52 1311.07c-1.6.15-18.29-1.35-18.26-1.84v.18c0 .49-16.78.35-18.36 0-21.89-4.33-18.76-23.31-12.31-29.8 6.85-6.9 9.57-7.67 16.36-11.58 8-4.63 14-12.29 17.34-20.42v-.18c2.57 8.42 7.72 16.63 15.25 22 6.38 4.57 9 5.6 15.15 13.13 5.79 7.14 7.04 26.34-15.17 28.51z" fill="#f8bc19"/><path d="m1486.8 1307.46-1.41 28.69-9.24-.45.27-5.44a4.84 4.84 0 0 0 -1.54-3.74l-1-.9-1 .82a4.81 4.81 0 0 0 -1.8 3.48l-.27 5.52-12.22-.6.26-5.44a4.85 4.85 0 0 0 -1.54-3.74l-.88-.83-.07-.07-1 .82a4.8 4.8 0 0 0 -1.79 3.48l-.27 5.52-12.23-.6.26-5.44a4.85 4.85 0 0 0 -1.54-3.74l-.94-.9-1 .82a4.81 4.81 0 0 0 -1.79 3.48l-.27 5.52-9.24-.45 1.41-28.7z" fill="#de9d53"/><path d="m1503.87 1387.46-100.66-4.94 2.77-56.39a8.84 8.84 0 0 1 9.25-8.39l83 4.08a8.82 8.82 0 0 1 8.39 9.24z" fill="#9f4f29"/><path d="m1472.4 1385.91 1.81-37c.49-9.91-18.07-16.9-18.07-16.9s-19.15 5.15-19.64 15l-1.81 37z" fill="#de9d53"/><path d="m1497.48 1350.81c.15-3-7-8.88-7-8.88s-7.71 5.18-7.86 8.15l-1.09 22.17 14.89.73z" fill="#de9d53"/><path d="m1428.05 1347.4c.14-3-7-8.88-7-8.88s-7.72 5.19-7.86 8.15l-1.09 22.18 14.89.72z" fill="#de9d53"/><path d="m1410.07 1242.31-.39 8-13.37-.65.39-8.06a50 50 0 0 1 7.84-24.5l.07-.11.06.12a49.86 49.86 0 0 1 5.4 25.2z" fill="#f8bc19"/></g><path d="m1335.5 1311.19h128.32v13.39h-128.32z" fill="#de9d53" transform="matrix(.04902409 -.9987976 .9987976 .04902409 -1009.7 1891.58)"/><path d="m390.14 486.55-5.15 7.84-13.36-.65-4.36-8.31z" fill="#9f4f29"/><path d="m1523.64 1247.88-.4 8-13.37-.65.4-8.06a50 50 0 0 1 7.83-24.5l.07-.11.07.12a50.08 50.08 0 0 1 5.4 25.2z" fill="#f8bc19" transform="translate(-1024.5 -759.73)"/><path d="m1449.07 1316.76h128.32v13.39h-128.32z" fill="#de9d53" transform="matrix(.04902409 -.9987976 .9987976 .04902409 -907.28 2010.29)"/><path d="m503.7 492.12-5.14 7.85-13.37-.66-4.35-8.31z" fill="#9f4f29"/><path d="m1491.76 1378.78a143.09 143.09 0 1 1 25.31-274.19 170.91 170.91 0 1 0 44.18 239.92 142.05 142.05 0 0 1 -69.49 34.27z" fill="#ffce36" transform="translate(-1024.5 -759.73)"/></svg>