<svg viewBox="0 0 339.5 339.5" xmlns="http://www.w3.org/2000/svg"><g fill="#33d15c" transform="translate(0 -74.69)"><path d="m291.61 126.4-19.55 38.34a129.07 129.07 0 0 1 27.44 79.7c0 71.54-58.21 129.75-129.75 129.75s-129.75-58.19-129.75-129.75 58.21-129.75 129.75-129.75a129.23 129.23 0 0 1 41.49 6.8l21.48-34.69a169.08 169.08 0 0 0 -63-12.11c-93.57 0-169.72 76.15-169.72 169.75s76.15 169.75 169.75 169.75 169.75-76.19 169.75-169.75a169.17 169.17 0 0 0 -47.89-118.04z"/><path d="m183.5 217.69s6.23-23.17 42.9-81.9c22.68-36.33 77.28-75.77 44.26-12.42-28.85 55.36-59 121-70.66 172.82 0 0-33 43-57 24 0 0-17-75-41-100 0 0-6-19 21-35s35-12 37-10 17 25 23.5 42.5z"/></g></svg>