<svg enable-background="new 0 0 512 512" viewBox="0 0 512 512" xmlns="http://www.w3.org/2000/svg"><path d="m24.249 147.146c-15.544 33.036-24.249 69.926-24.249 108.854 0 16.112 1.504 31.871 4.352 47.158h175.91z"/><path d="m401.148 45.118-123.303 123.303h218.776c-18.342-50.381-52.061-93.364-95.473-123.303z"/><path d="m507.649 208.842h-175.768l155.88 155.993c15.538-33.031 24.239-69.915 24.239-108.835 0-16.112-1.504-31.871-4.351-47.158z"/><path d="m45.118 110.853 123.303 123.302v-218.776c-50.382 18.342-93.366 52.061-123.303 95.474z"/><path d="m147.146 487.751c33.036 15.545 69.926 24.249 108.854 24.249 16.112 0 31.871-1.505 47.158-4.351v-175.909z"/><path d="m343.579 277.845v218.776c50.382-18.342 93.366-52.061 123.303-95.474z"/><path d="m15.379 343.579c18.342 50.381 52.061 93.365 95.473 123.303l123.303-123.303z"/><path d="m256 0c-16.112 0-31.871 1.505-47.158 4.352v175.908l156.012-156.011c-33.036-15.545-69.926-24.249-108.854-24.249z"/></svg>