<svg viewBox="0 0 1031.56 1031.56" xmlns="http://www.w3.org/2000/svg"><g transform="translate(-984.22 -484.22)"><path d="m1500 484.22v515.78h515.78c0-284.86-230.92-515.78-515.78-515.78z" fill="#2dc82d"/><path d="m1500 484.22c-284.86 0-515.78 230.92-515.78 515.78h515.78z" fill="#ff152c"/><path d="m1500 1515.78v-515.78h-515.78c0 284.86 230.92 515.78 515.78 515.78z" fill="#eddc0a"/><path d="m1500 1515.78c284.86 0 515.78-230.92 515.78-515.78h-515.78z" fill="#6300d6"/><path d="m1500 1309.22v-309.22h-309.22c0 170.78 138.44 309.22 309.22 309.22z" fill="#2dc82d"/><path d="m1500 1309.22c170.78 0 309.22-138.44 309.22-309.22h-309.22z" fill="#ff152c"/><path d="m1500 690.78v309.22h309.22c0-170.78-138.44-309.22-309.22-309.22z" fill="#eddc0a"/><path d="m1500 690.78c-170.78 0-309.22 138.44-309.22 309.22h309.22z" fill="#6300d6"/></g></svg>