<svg viewBox="0 0 500 500" xmlns="http://www.w3.org/2000/svg"><circle cx="250" cy="250" fill="#e94b4e" r="250"/><path d="m409.61 359.29h-310.82l-1.7-7.9a844.36 844.36 0 0 1 -13.09-85.74c-6.1-63-.93-101.74 15.82-118.49 34.61-34.61 118.88-46.75 182.53-43.38 60.5 3.2 106.73 19.3 126.82 44.17 14.6 18.06 19.07 57 13.68 118.9-3.83 44-11.32 82.73-11.64 84.35zm-294.56-20h277.95c2.41-13.67 7.16-42.94 9.89-74.33 6.33-73-3.12-96.77-9.32-104.44-16.3-20.17-58.29-33.91-112.33-36.77-71.42-3.78-141.79 12-167.33 37.55-5.47 5.47-17.4 26.39-10.07 102.26 3.16 31.93 8.54 61.95 11.21 75.73z" fill="#fff"/><path d="m383.23 260.63-130.48-61.9-129.12 61.67c.09 1 .19 2.08.29 3.14.59 6.08 1.26 12.09 2 17.94l126.88-60.6 128.41 60.92c.6-5.5 1.17-11.15 1.66-16.87.13-1.45.25-2.93.36-4.3z" fill="#fff"/><path d="m102.79 159.38 150.48 71.87 151.51-71.87" fill="#e94b4e"/><path d="m253.25 242.32-154.77-73.92 8.62-18.05 146.18 69.82 147.22-69.83 8.57 18.07z" fill="#fff"/></svg>