<svg viewBox="0 0 426.78 539.77" xmlns="http://www.w3.org/2000/svg"><g transform="translate(-86.15 -30.47)"><path d="m117 408.79v-3.24a12.58 12.58 0 0 1 12.58-12.55h15.28a3 3 0 0 0 3-3v-2a3 3 0 0 0 -3-3 14.2 14.2 0 0 1 -14.2-14.2 14.2 14.2 0 0 1 14.2-14.2h71.74a14.2 14.2 0 0 1 14.2 14.2 14.19 14.19 0 0 1 -9.81 13.5 4.44 4.44 0 0 0 -3.1 4.21 4.4 4.4 0 0 0 4.41 4.49h26.07a12.58 12.58 0 0 1 12.57 12.58v3.24a12.58 12.58 0 0 1 -4.28 9.46h20.44a14.2 14.2 0 0 1 14.2-14.2h59.33a3.34 3.34 0 1 0 0-6.67h-9.63a14.2 14.2 0 0 1 -14.2-14.2 14.2 14.2 0 0 1 14.2-14.21h24.5a14.13 14.13 0 0 1 -2-7.22 14.2 14.2 0 0 1 14.2-14.2h98.41a14.2 14.2 0 0 1 14.2 14.2 14.13 14.13 0 0 1 -2 7.22h24.58v-190a30.08 30.08 0 0 0 -13.77-25.29l-183.25-118.42a30.1 30.1 0 0 0 -32.66 0l-183.29 118.37a30.1 30.1 0 0 0 -13.77 25.34v239.3h35.14a12.58 12.58 0 0 1 -4.29-9.51z" fill="#2e3270"/><path d="m276.48 198.28h26.4a9.9 9.9 0 0 0 9.9-9.9 9.9 9.9 0 0 0 -9.9-9.9h-26.4a9.9 9.9 0 0 0 -9.9 9.9 9.9 9.9 0 0 0 9.9 9.9z" fill="#353c7c"/><path d="m199.2 231.91h20.11c4.16 0 7.54-4.37 7.54-9.75 0-5.39-3.38-9.75-7.54-9.75h-20.11c-4.16 0-7.54 4.36-7.54 9.75 0 5.38 3.34 9.75 7.54 9.75z" fill="#353c7c"/><path d="m500.83 346.09a13.58 13.58 0 0 0 4.63-10.23v-3.5a13.6 13.6 0 0 0 -13.6-13.6h-16.51a3.24 3.24 0 0 1 -3.24-3.23v-2.1a3.24 3.24 0 0 1 3.24-3.24 15.35 15.35 0 0 0 15.35-15.35 15.35 15.35 0 0 0 -15.35-15.35h-77.58a15.35 15.35 0 0 0 -15.35 15.35 15.37 15.37 0 0 0 10.58 14.6 4.78 4.78 0 0 1 3.35 4.55 4.76 4.76 0 0 1 -4.76 4.77h-28.16a13.6 13.6 0 0 0 -13.6 13.6v3.5a13.62 13.62 0 0 0 4.63 10.23h-22.1a15.36 15.36 0 0 0 -15.36-15.36h-64.14a3.6 3.6 0 1 1 0-7.2h10.41a15.36 15.36 0 0 0 15.35-15.36 15.35 15.35 0 0 0 -15.35-15.35h-26.49a15.24 15.24 0 0 0 2.14-7.81 15.35 15.35 0 0 0 -15.35-15.35h-106.4a15.36 15.36 0 0 0 -15.36 15.34 15.34 15.34 0 0 0 2.14 7.81h-17.8v130l426.72-1.06v-75.66z" fill="#353c7c"/><path d="m459.35 226.51h-8.35a4.49 4.49 0 0 1 -4.49-4.49 4.54 4.54 0 0 1 3.5-4.39 16.26 16.26 0 0 0 12.36-15.79 16.26 16.26 0 0 0 -16.27-16.26h-90a16.26 16.26 0 0 0 -16.26 16.26 16.26 16.26 0 0 0 16.26 16.27h7.1a4.2 4.2 0 0 1 4.2 4.2 4.2 4.2 0 0 1 -4.2 4.2h-61.09a12.43 12.43 0 0 0 -12.43 12.43 12.43 12.43 0 0 0 12.43 12.43h98.73a7.91 7.91 0 0 0 -7.91 7.9 7.91 7.91 0 0 0 7.91 7.91h51.51a7.91 7.91 0 0 0 7.91-7.91 7.91 7.91 0 0 0 -7.91-7.9h7a12.43 12.43 0 0 0 12.43-12.43 12.43 12.43 0 0 0 -12.43-12.43z" fill="#353c7c"/><path d="m99.92 447.06 183.29 118.37a30.1 30.1 0 0 0 32.66 0l183.29-118.37a30.07 30.07 0 0 0 13.77-25.28v-52.78h-24.58a14.13 14.13 0 0 0 2-7.22 14.2 14.2 0 0 0 -14.2-14.2h-98.43a14.2 14.2 0 0 0 -14.2 14.2 14.13 14.13 0 0 0 2 7.22h-24.52a14.2 14.2 0 0 0 -14.2 14.2 14.2 14.2 0 0 0 14.2 14.2h9.63a3.34 3.34 0 1 1 0 6.67h-59.33a14.2 14.2 0 0 0 -14.2 14.2h-20.44a12.58 12.58 0 0 0 4.28-9.46v-3.24a12.58 12.58 0 0 0 -12.57-12.57h-26.07a4.4 4.4 0 0 1 -4.41-4.41 4.44 4.44 0 0 1 3.1-4.21 14.19 14.19 0 0 0 9.81-13.5 14.2 14.2 0 0 0 -14.2-14.2h-71.74a14.2 14.2 0 0 0 -14.2 14.2 14.2 14.2 0 0 0 14.2 14.2 3 3 0 0 1 3 3v1.92a3 3 0 0 1 -3 3h-15.28a12.58 12.58 0 0 0 -12.58 12.55v3.24a12.58 12.58 0 0 0 4.28 9.46h-35.13v3.53a30.1 30.1 0 0 0 13.77 25.28z" fill="#414d93"/><path d="m124.57 346.74h20.11c4.16 0 7.53-4.36 7.53-9.75 0-5.38-3.37-9.75-7.53-9.75h-20.11c-4.17 0-7.54 4.37-7.54 9.75-.03 5.39 3.37 9.75 7.54 9.75z" fill="#414d93"/><path d="m167.72 332.78h14.49c3 0 5.43-3.14 5.43-7 0-3.88-2.43-7-5.43-7h-14.49c-3 0-5.43 3.14-5.43 7 0 3.86 2.43 7 5.43 7z" fill="#414d93"/><path d="m434 488.17a23.09 23.09 0 0 0 10.51-19.37v-118.68a23.09 23.09 0 0 0 -11.55-20l-121.87-70.36a23.1 23.1 0 0 0 -11.55-3.09v310.38a44.33 44.33 0 0 0 22.59-6.18z" fill="#2e2042"/><path d="m162.29 356.5a23.11 23.11 0 0 1 11.55-20l121.83-70.34a23.21 23.21 0 0 1 3.87-1.77v-7.71a23.1 23.1 0 0 0 -11.54 3.08l-121.85 70.35a23.11 23.11 0 0 0 -11.55 20v118.69a23.11 23.11 0 0 0 10.51 19.37l2.26 1.47a23.14 23.14 0 0 1 -5.08-14.46z" fill="#5c4a82"/><path d="m299.54 567.05v-302.67a23.21 23.21 0 0 0 -3.87 1.77l-121.83 70.34a23.11 23.11 0 0 0 -11.55 20v118.69a23.14 23.14 0 0 0 5.08 14.46l109.63 71.23a44.36 44.36 0 0 0 22.54 6.18z" fill="#3e2e59"/></g><path d="m213.39 292.27-144.94 69.41v-20.35l144.94-69.4z" fill="#fbb040"/><path d="m213.39 292.27 144.94 69.41v-20.35l-144.94-69.4z" fill="#e28340"/></svg>