<svg height="1103.41" viewBox="0 0 1103.41 1103.41" width="1103.41" xmlns="http://www.w3.org/2000/svg"><path d="m1103.41 551.69v1c0 3.65-.07 7.19-.15 10.78-.07 3.14-.15 6.18-.32 9.25 0 2.15-.15 4.21-.22 6.29-.22 4.42-.47 8.7-.84 13.06 0 .94-.08 1.93-.15 2.84-.37 4.28-.77 8.56-1.21 12.77-.1 1.6-.25 3.21-.48 4.74-.07 1.22-.22 2.38-.36 3.52-.25 1.75-.47 3.58-.7 5.36s-.47 3.74-.69 5.57c-.44 3.22-.92 6.58-1.46 9.8-.22 1.53-.47 3.14-.77 4.57-.07.55-.15.84-.22 1.31q-.93 6-2 11.95c-.79 3.89-1.53 7.79-2.38 11.6 0 .18 0 .18-.1.25-38.14 181.57-165.81 330.11-334.61 397.75-6.28 2.52-12.69 5-19.12 7.09-4.31 1.61-8.56 3.15-12.94 4.53-1 .37-2.05.74-3 1.07a553.5 553.5 0 0 1 -75.28 18.5c-3.36.54-6.72 1.06-10.16 1.6-7.52 1.14-15.09 2.16-22.71 3-3.84.55-7.67.87-11.48 1.24-2.92.3-5.89.54-8.88.84-2.9.08-5.81.4-8.78.45-4.6.32-9.21.54-13.78.71-1.76.15-3.59.15-5.37.15-4.5.08-9 .15-13.46.15-9.25 0-18.42-.15-27.53-.77a33.28 33.28 0 0 1 -4.67-.29c-1.91-.1-3.81-.15-5.74-.32-6-.3-11.85-.85-17.74-1.36-4.72-.55-9.47-1.09-14.22-1.61-19.13-2.45-37.95-5.91-56.45-10.12-235.3-55.14-425.35-266.76-425.35-537.23 0-304.74 247-551.71 551.7-551.71 299 0 542.38 237.72 551.49 534.56 0 .92.07 1.91.07 2.82v.18c-.01 4.72.06 9.38.06 14.11z" fill="#006fba"/><path d="m872.89 214.37a463.75 463.75 0 0 0 -319.07-128.32 20.65 20.65 0 0 0 -2.08.07c-.74 0-1.41-.11-2.12-.07a463.73 463.73 0 0 0 -319.07 128.32c-93.25 88.68-144.64 208.52-144.64 337.32s51.39 248.65 144.64 337.37a463.74 463.74 0 0 0 319.07 128.28h1.52.6s.37 0 .59 0h1.49a463.76 463.76 0 0 0 319.07-128.28c93.25-88.72 144.6-208.52 144.6-337.37s-51.35-248.64-144.6-337.32z" fill="#fff"/><path d="m552.33 1057.61h-1.19c-.89 0-1.78 0-2.67 0a503.74 503.74 0 0 1 -345.66-139.36c-101.32-96.42-157.09-226.56-157.09-366.56s55.81-270.13 157.13-366.51a504 504 0 0 1 346.14-139.36h2.86 2.53a504 504 0 0 1 346.29 139.36c101.29 96.38 157.05 226.56 157.05 366.51s-55.77 270.14-157.1 366.52a504 504 0 0 1 -345.65 139.36c-.89.04-1.78.04-2.64.04zm-2.82-931.33a423.82 423.82 0 0 0 -291.22 117.24c-85.23 81-132.11 190.49-132.11 308.17s46.88 227.16 132.11 308.18a423.79 423.79 0 0 0 291.48 117.24h3.9a424 424 0 0 0 291.52-117.24c85.15-81 132.07-190.49 132.07-308.18s-46.92-227.15-132.07-308.17a424 424 0 0 0 -291.18-117.24c-1.45.08-1.68.08-2.27.08h-1.3z" fill="#fff"/><path d="m240.77 862.56a437.24 437.24 90 1 1 618.35-618.35 437.24 437.24 90 1 1 -618.35 618.35" fill="#52b9e9"/><g fill="#006fba"><path d="m549.95 995.03c-243.55 0-441.73-198.11-441.73-441.66s198.18-441.68 441.73-441.68 441.67 198.15 441.67 441.7-198.11 441.64-441.67 441.64zm0-874.44c-238.64 0-432.77 194.13-432.77 432.78s194.13 432.77 432.77 432.77 432.77-194.13 432.77-432.77-194.16-432.78-432.77-432.78z"/><path d="m551.52 578.47h-438.8a26.79 26.79 0 0 1 -26.81-26.78c0-128.8 51.39-248.64 144.64-337.32a463.73 463.73 0 0 1 319.07-128.32 27.81 27.81 0 0 1 18.59 5.87 26.48 26.48 0 0 1 10.53 20.9 26.11 26.11 0 0 1 -.45 4.76v434.11a26.77 26.77 0 0 1 -26.77 26.78zm-411.18-53.55h384.38v-384.47a410.12 410.12 0 0 0 -257.25 112.74c-76.04 72.28-120.58 167.96-127.13 271.73z"/><path d="m551.52 1017.27a26.82 26.82 0 0 1 -26.8-26.78v-3.23a26.77 26.77 0 0 1 42.24-21.87l1.6 1.08 3.05 2a26.8 26.8 0 0 1 -13.84 48.6c-2.05.2-4.25.2-6.25.2z"/><path d="m551.52 383.37c-58.61 0-115.2-10.34-168.22-30.72-58.68-22.38-111.78-57.07-153.58-100.28a26.85 26.85 0 0 1 .82-38 463.73 463.73 0 0 1 319.08-128.32 27.13 27.13 0 0 1 4.68.15 27.59 27.59 0 0 1 24.42 26.62 26.11 26.11 0 0 1 -.45 4.76v239a26.78 26.78 0 0 1 -26.75 26.79zm-263-148.92a376.19 376.19 0 0 0 113.93 68.24 409.65 409.65 0 0 0 122.27 26.31v-188.55a410 410 0 0 0 -236.2 94z"/><path d="m551.52 578.47h-198.9a26.78 26.78 0 0 1 -26.77-26.78c0-81.13 14.54-161.93 42-233.62 36.74-95.82 96.61-175.43 168.59-224.14a26.81 26.81 0 0 1 41.8 22.2v435.56a26.77 26.77 0 0 1 -26.72 26.78zm-171.57-53.55h144.77v-352.83c-44.44 42.2-81.55 99.2-106.83 165.17-22.17 57.78-35.11 122.15-37.94 187.66z"/><path d="m990.72 578.47h-438.76a26.76 26.76 0 0 1 -26.77-26.78v-434.11a23 23 0 0 1 -.48-4.76 27.58 27.58 0 0 1 24.42-26.62 32 32 0 0 1 4.69-.15 463.75 463.75 0 0 1 319.07 128.32c93.25 88.68 144.6 208.52 144.6 337.32a26.75 26.75 0 0 1 -26.77 26.78zm-412-53.55h384.4c-6.55-103.77-51.13-199.45-127.18-271.73a410.16 410.16 0 0 0 -257.22-112.74z"/><path d="m551.96 383.37a26.78 26.78 0 0 1 -26.77-26.77v-239a23 23 0 0 1 -.48-4.76 27.58 27.58 0 0 1 24.42-26.62 32 32 0 0 1 4.69-.15 463.75 463.75 0 0 1 319.07 128.32 26.8 26.8 0 0 1 .78 38c-41.72 43.21-94.82 77.9-153.57 100.32-52.95 20.32-109.54 30.66-168.14 30.66zm26.76-242.92v188.55a410.85 410.85 0 0 0 122.27-26.31 378 378 0 0 0 113.93-68.23 409.85 409.85 0 0 0 -236.2-94.01z"/><path d="m750.82 578.47h-198.86a26.76 26.76 0 0 1 -26.77-26.78v-435.56a26.77 26.77 0 0 1 41.76-22.2c72 48.71 131.81 128.32 168.62 224.14 27.48 71.69 42 152.49 42 233.62a26.76 26.76 0 0 1 -26.75 26.78zm-172.1-53.55h144.71c-2.75-65.51-15.73-129.88-37.85-187.66-25.36-66-62.43-123-106.86-165.17z"/><path d="m552.33 1017.38a22.37 22.37 0 0 1 -3.2-.19 27.5 27.5 0 0 1 -24.42-26.62 24.47 24.47 0 0 1 .48-4.91v-433.97a26.76 26.76 0 0 1 26.77-26.77h438.76a26.75 26.75 0 0 1 26.77 26.77c0 128.85-51.35 248.65-144.6 337.37a463.76 463.76 0 0 1 -319.07 128.28c-.52.04-1 .04-1.49.04zm26.39-438.91v384.47a410.55 410.55 0 0 0 257.22-112.7c76-72.32 120.63-168 127.18-271.77z"/><path d="m552.33 1017.38a22.37 22.37 0 0 1 -3.2-.19 27.5 27.5 0 0 1 -24.42-26.62 24.47 24.47 0 0 1 .48-4.91v-238.87a26.76 26.76 0 0 1 26.77-26.77c58.6 0 115.19 10.34 168.22 30.72 58.67 22.38 111.77 57.11 153.49 100.28a26.62 26.62 0 0 1 7.51 19.19 26.91 26.91 0 0 1 -8.29 18.85 463.76 463.76 0 0 1 -319.07 128.28c-.52.04-1 .04-1.49.04zm26.41-243v188.52a409.92 409.92 0 0 0 236.18-94 377.65 377.65 0 0 0 -113.93-68.19 408.43 408.43 0 0 0 -122.27-26.29z"/><path d="m551.96 1014.03a26.73 26.73 0 0 1 -26.77-26.77v-435.57a26.76 26.76 0 0 1 26.77-26.77h198.86a26.76 26.76 0 0 1 26.77 26.77c0 81.14-14.54 161.9-42 233.63-36.81 95.85-96.67 175.43-168.62 224.1a26.42 26.42 0 0 1 -15.01 4.61zm26.76-435.56v352.87c44.43-42.21 81.5-99.25 106.86-165.21 22.12-57.75 35.1-122.15 37.85-187.66z"/><path d="m551.14 1017.38c-.52 0-1 0-1.52 0a463.74 463.74 0 0 1 -319.07-128.28c-93.25-88.72-144.64-208.52-144.64-337.37a26.79 26.79 0 0 1 26.81-26.81h438.8a26.76 26.76 0 0 1 26.77 26.77v434.08a26.89 26.89 0 0 1 .45 4.8 27.52 27.52 0 0 1 -24.44 26.62 22.7 22.7 0 0 1 -3.16.19zm-410.8-438.91c6.55 103.78 51.09 199.45 127.13 271.77a410.5 410.5 0 0 0 257.25 112.7v-384.47z"/><path d="m551.14 1017.38c-.52 0-1 0-1.52 0a463.74 463.74 0 0 1 -319.07-128.28 26.9 26.9 0 0 1 -.82-38c41.79-43.17 94.89-77.9 153.57-100.32 53-20.34 109.61-30.68 168.22-30.68a26.76 26.76 0 0 1 26.77 26.77v239a26.89 26.89 0 0 1 .45 4.8 27.52 27.52 0 0 1 -24.44 26.62 22.34 22.34 0 0 1 -3.16.09zm-262.62-148.44a410 410 0 0 0 236.19 94v-188.52a409.49 409.49 0 0 0 -122.23 26.27c-42.38 16.23-81.28 39.55-113.96 68.25z"/><path d="m551.52 1014.03a26.57 26.57 0 0 1 -15-4.61c-72-48.67-131.85-128.25-168.59-224.1-27.51-71.73-42-152.49-42-233.63a26.78 26.78 0 0 1 26.77-26.77h198.9a26.76 26.76 0 0 1 26.69 26.77v435.57a26.79 26.79 0 0 1 -26.77 26.77zm-171.57-435.56c2.83 65.51 15.77 129.91 37.93 187.66 25.28 66 62.39 123 106.83 165.21v-352.87z"/><path d="m524.71 987.26h53.58v3.23h-53.58z"/></g></svg>