<svg viewBox="0 0 427.22 539.77" xmlns="http://www.w3.org/2000/svg"><path d="m117.23 408.79v-3.24a12.58 12.58 0 0 1 12.58-12.55h15.27a3 3 0 0 0 3-3v-2a3 3 0 0 0 -3-3 14.2 14.2 0 0 1 -14.2-14.2 14.2 14.2 0 0 1 14.2-14.2h71.74a14.2 14.2 0 0 1 14.2 14.2 14.19 14.19 0 0 1 -9.81 13.5 4.44 4.44 0 0 0 -3.1 4.21 4.4 4.4 0 0 0 4.41 4.41h26.07a12.59 12.59 0 0 1 12.58 12.58v3.24a12.55 12.55 0 0 1 -4.29 9.46h20.44a14.2 14.2 0 0 1 14.2-14.2h59.33a3.34 3.34 0 1 0 0-6.67h-9.63a14.19 14.19 0 0 1 -14.22-14.15 14.19 14.19 0 0 1 14.22-14.18h24.5a14.12 14.12 0 0 1 -2-7.22 14.19 14.19 0 0 1 14.19-14.2h98.41a14.2 14.2 0 0 1 14.2 14.2 14 14 0 0 1 -2 7.22h24.58v-190a30.08 30.08 0 0 0 -13.77-25.29l-183.24-118.42a30.1 30.1 0 0 0 -32.66 0l-183.29 118.37a30.1 30.1 0 0 0 -13.77 25.34v239.3h35.14a12.58 12.58 0 0 1 -4.28-9.51z" fill="#191035" transform="translate(-85.93 -30.47)"/><path d="m488.57 210.09a14.1 14.1 0 0 0 2-7.23 14.2 14.2 0 0 0 -14.2-14.2h-98.43a14.19 14.19 0 0 0 -14.19 14.2 14.19 14.19 0 0 0 2 7.23h-24.5a14.19 14.19 0 0 0 -14.25 14.19 14.19 14.19 0 0 0 14.19 14.2h9.63a3.34 3.34 0 1 1 0 6.67h-42.61a31.59 31.59 0 1 0 -60.66-12.36v1.28h-25.03a4.4 4.4 0 0 1 -4.41-4.41 4.42 4.42 0 0 1 3.1-4.2 14.21 14.21 0 0 0 9.79-13.46 14.2 14.2 0 0 0 -14.2-14.2h-25.89a19.23 19.23 0 0 0 -38.45 0h-7.38a14.2 14.2 0 0 0 -14.2 14.2 14.2 14.2 0 0 0 14.2 14.2 3 3 0 0 1 3 3v1.94a3 3 0 0 1 -3 3h-15.27a12.58 12.58 0 0 0 -12.58 12.58v3.24a12.58 12.58 0 0 0 4.28 9.46h-35.14v109c0 10.22 197.06 38.18 197.06 38.18a30.1 30.1 0 0 0 32.66 0s197.06-40.6 197.06-50.87v-145.64zm-229.66 47a32.28 32.28 0 0 0 3.13 2.3h-5.16a13.07 13.07 0 0 0 2.03-2.34z" fill="#2e112d" transform="translate(-85.93 -30.47)"/><path d="m124.79 187.85h20.11c4.16 0 7.54-4.37 7.54-9.75s-3.38-9.75-7.54-9.75h-20.11c-4.16 0-7.54 4.36-7.54 9.75s3.38 9.75 7.54 9.75z" fill="#2e112d" transform="translate(-85.93 -30.47)"/><path d="m167.94 173.89h14.49c3 0 5.43-3.15 5.43-7 0-3.88-2.43-7-5.43-7h-14.49c-3 0-5.43 3.14-5.43 7 0 3.85 2.43 7 5.43 7z" fill="#2e112d" transform="translate(-85.93 -30.47)"/><rect fill="#540032" height="19.8" rx="9.9" width="46.21" x="180.87" y="148.01"/><g transform="translate(-85.93 -30.47)"><path d="m199.42 231.91h20.11c4.17 0 7.54-4.37 7.54-9.75s-3.37-9.75-7.54-9.75h-20.11c-4.16 0-7.53 4.36-7.53 9.75s3.37 9.75 7.53 9.75z" fill="#540032"/><path d="m501.05 346.09a13.58 13.58 0 0 0 4.63-10.23v-3.5a13.6 13.6 0 0 0 -13.6-13.6h-16.51a3.24 3.24 0 0 1 -3.24-3.23v-2.1a3.24 3.24 0 0 1 3.25-3.24 15.36 15.36 0 0 0 15.34-15.69 15.62 15.62 0 0 0 -15.76-15h-76.73a15.64 15.64 0 0 0 -15.79 15.32 15.37 15.37 0 0 0 10.45 14.58 5 5 0 0 1 3.49 4 4.77 4.77 0 0 1 -4.74 5.33h-28.19a13.6 13.6 0 0 0 -13.6 13.6v3.5a13.59 13.59 0 0 0 4.64 10.23h-22.11a15.36 15.36 0 0 0 -15.35-15.36h-64a3.74 3.74 0 0 1 -3.8-3.41 3.59 3.59 0 0 1 3.6-3.79h10c8.26 0 15.38-6.36 15.76-14.61a15.35 15.35 0 0 0 -15.33-16.1h-26.46a15.23 15.23 0 0 0 2.09-9 15.6 15.6 0 0 0 -15.7-14.14h-16.5a11.58 11.58 0 0 1 -10.83-7.22 38.57 38.57 0 0 0 -72.75 2.82 6.14 6.14 0 0 1 -5.84 4.4h-.08a15.35 15.35 0 0 0 -15.39 15.35 15.33 15.33 0 0 0 2.13 7.81h-17.76v130l426.72-1.06v-75.66z" fill="#540032"/><path d="m356.33 218.11h6.91a4.32 4.32 0 0 1 4.36 3.79 4.2 4.2 0 0 1 -4.18 4.61h-60.68a12.71 12.71 0 0 0 -12.84 12.2 12.44 12.44 0 0 0 12.43 12.66h98.73a7.9 7.9 0 0 0 -7.89 8.43 8.09 8.09 0 0 0 8.16 7.38h51a8.09 8.09 0 0 0 8.16-7.38 7.9 7.9 0 0 0 -7.89-8.43h6.59a12.71 12.71 0 0 0 12.81-12.2 12.42 12.42 0 0 0 -12.42-12.66h-8.18a4.63 4.63 0 0 1 -4.65-3.81 4.52 4.52 0 0 1 3.45-5.07 16.26 16.26 0 0 0 5.47-29.08 8 8 0 0 1 -3.23-5.32 28.41 28.41 0 0 0 -50.67-12.57 7.53 7.53 0 0 1 -7.36 3 24.41 24.41 0 0 0 -23.53 8.47 9.62 9.62 0 0 1 -7.43 3.47h-6.66c-8.76 0-16.3 6.73-16.71 15.48a16.26 16.26 0 0 0 16.25 17.03z" fill="#540032"/><path d="m488.57 369a14 14 0 0 0 2-7.22 14.2 14.2 0 0 0 -14.2-14.2h-2.49a61.13 61.13 0 0 0 -120.26 21.42h-12.4a14.19 14.19 0 0 0 -14.22 14.18 14.19 14.19 0 0 0 14.19 14.2h9.63a3.34 3.34 0 1 1 0 6.67h-59.3a14.2 14.2 0 0 0 -14.2 14.2h-20.44a12.55 12.55 0 0 0 4.29-9.46v-3.24a12.59 12.59 0 0 0 -12.58-12.55h-26.07a4.41 4.41 0 0 1 -1.31-8.62 14.19 14.19 0 0 0 9.81-13.5 14.2 14.2 0 0 0 -14.2-14.2h-71.74a14.2 14.2 0 0 0 -14.2 14.2 14 14 0 0 0 2 7.21 39.17 39.17 0 0 0 -8.37-.92 38.57 38.57 0 0 0 -38.57 38.58 39.05 39.05 0 0 0 .44 5.86v.2a30.1 30.1 0 0 0 13.77 25.28l183.28 118.34a30.1 30.1 0 0 0 32.66 0l183.29-118.37a30.07 30.07 0 0 0 13.77-25.28v-52.78z" fill="#2e3270"/><path d="m124.79 346.74h20.11c4.16 0 7.54-4.36 7.54-9.75 0-5.38-3.38-9.75-7.54-9.75h-20.11c-4.16 0-7.54 4.37-7.54 9.75 0 5.39 3.38 9.75 7.54 9.75z" fill="#2e3270"/><path d="m167.94 332.78h14.49c3 0 5.43-3.14 5.43-7s-2.43-7-5.43-7h-14.49c-3 0-5.43 3.14-5.43 7s2.43 7 5.43 7z" fill="#2e3270"/><path d="m155 194.11h-6.85l3.1-3.1a1.1 1.1 0 0 0 -1.56-1.56l-3.1 3.1v-6.85a1.11 1.11 0 0 0 -2.22 0v6.85l-3.1-3.1a1.11 1.11 0 0 0 -1.57 1.55l3.1 3.1h-6.8a1.11 1.11 0 1 0 0 2.22h6.85l-3.1 3.1a1.12 1.12 0 0 0 0 1.57 1.1 1.1 0 0 0 1.57 0l3.1-3.1v6.85a1.11 1.11 0 0 0 2.22 0v-6.84l3.1 3.1a1.09 1.09 0 0 0 1.56 0 1.1 1.1 0 0 0 0-1.57l-3.1-3.1h6.8a1.11 1.11 0 1 0 0-2.22z" fill="#ffefad"/><path d="m240.88 124.59h-6.88l3.1-3.1a1.11 1.11 0 0 0 -1.56-1.57l-3.11 3.1v-6.85a1.11 1.11 0 1 0 -2.21 0v6.83l-3.1-3.1a1.11 1.11 0 0 0 -1.57 1.57l3.1 3.1h-6.85a1.11 1.11 0 0 0 0 2.22h6.85l-3.1 3.1a1.11 1.11 0 1 0 1.57 1.56l3.1-3.1v6.85a1.11 1.11 0 1 0 2.21 0v-6.85l3.11 3.1a1.1 1.1 0 0 0 1.56-1.56l-3.1-3.1h6.85a1.11 1.11 0 1 0 0-2.22z" fill="#ffefad"/><path d="m266.81 241.55h-5.28l2.39-2.4a.86.86 0 0 0 -1.21-1.21l-2.39 2.4v-5.29a.86.86 0 0 0 -.86-.85.85.85 0 0 0 -.85.85v5.29l-2.4-2.4a.86.86 0 0 0 -1.21 1.21l2.4 2.4h-5.29a.85.85 0 0 0 -.85.85.86.86 0 0 0 .85.86h5.29l-2.4 2.39a.86.86 0 0 0 .61 1.46.82.82 0 0 0 .6-.25l2.4-2.39v5.28a.86.86 0 1 0 1.71 0v-5.28l2.39 2.39a.86.86 0 0 0 1.21 0 .86.86 0 0 0 0-1.21l-2.39-2.39h5.28a.86.86 0 1 0 0-1.71z" fill="#ffefad"/><path d="m283.49 225h-4.08l1.85-1.84a.66.66 0 0 0 0-.94.65.65 0 0 0 -.93 0l-1.85 1.85v-4.07a.66.66 0 1 0 -1.32 0v4.08l-1.85-1.85a.65.65 0 0 0 -.93 0 .66.66 0 0 0 0 .94l1.85 1.84h-4.08a.66.66 0 0 0 0 1.32h4.08l-1.85 1.85a.65.65 0 0 0 0 .93.67.67 0 0 0 .47.2.65.65 0 0 0 .46-.2l1.85-1.84v4.07a.66.66 0 1 0 1.32 0v-4.07l1.85 1.84a.63.63 0 0 0 .46.2.67.67 0 0 0 .47-.2.65.65 0 0 0 0-.93l-1.85-1.85h4.08a.66.66 0 1 0 0-1.32z" fill="#ffefad"/><path d="m316.65 114.4h-4.08l1.85-1.84a.66.66 0 0 0 0-.94.68.68 0 0 0 -.94 0l-1.84 1.85v-4.08a.66.66 0 0 0 -1.32 0v4.08l-1.85-1.85a.66.66 0 1 0 -.93.94l1.84 1.84h-4.07a.66.66 0 1 0 0 1.32h4.07l-1.84 1.85a.65.65 0 0 0 0 .93.64.64 0 0 0 .93 0l1.85-1.84v4.07a.66.66 0 0 0 1.32 0v-4.07l1.84 1.84a.65.65 0 0 0 .94 0 .65.65 0 0 0 0-.93l-1.85-1.85h4.08a.66.66 0 0 0 0-1.32z" fill="#ffefad"/><path d="m428 162.43h-4.07l1.84-1.85a.66.66 0 0 0 -.93-.93l-1.84 1.85v-4.08a.66.66 0 0 0 -1.32 0v4.08l-1.84-1.85a.66.66 0 0 0 -.94 0 .65.65 0 0 0 0 .93l1.85 1.85h-4.08a.66.66 0 1 0 0 1.32h4.08l-1.85 1.85a.66.66 0 0 0 .94.93l1.84-1.85v4.08a.66.66 0 0 0 1.32 0v-4.08l1.85 1.85a.66.66 0 0 0 .93-.93l-1.84-1.85h4.06a.66.66 0 0 0 0-1.32z" fill="#ffefad"/><path d="m397.87 159.27h-4.08l1.85-1.84a.68.68 0 0 0 0-.94.66.66 0 0 0 -.94 0l-1.84 1.85v-4.08a.66.66 0 0 0 -1.32 0v4.08l-1.85-1.85a.65.65 0 0 0 -.93 0 .66.66 0 0 0 0 .94l1.84 1.84h-4.08a.66.66 0 1 0 0 1.32h4.08l-1.84 1.85a.65.65 0 0 0 0 .93.63.63 0 0 0 .46.2.67.67 0 0 0 .47-.2l1.85-1.84v4.07a.66.66 0 0 0 1.32 0v-4.07l1.84 1.84a.66.66 0 0 0 .94-.93l-1.85-1.85h4.08a.66.66 0 0 0 0-1.32z" fill="#ffefad"/><path d="m380.73 280.84h-4.08l1.85-1.84a.66.66 0 0 0 -.93-.93l-1.85 1.84v-4.07a.66.66 0 1 0 -1.32 0v4.07l-1.85-1.84a.66.66 0 0 0 -.93.93l1.85 1.85h-4.08a.66.66 0 0 0 0 1.32h4.08l-1.85 1.83a.66.66 0 0 0 .47 1.13.63.63 0 0 0 .46-.19l1.85-1.85v4.08a.66.66 0 0 0 1.32 0v-4.08l1.85 1.85a.63.63 0 0 0 .46.19.66.66 0 0 0 .47-1.13l-1.85-1.84h4.08a.66.66 0 1 0 0-1.32z" fill="#ffefad"/><path d="m434.19 488.17a23.09 23.09 0 0 0 10.51-19.37v-118.68a23.09 23.09 0 0 0 -11.55-20l-121.83-70.36a23.16 23.16 0 0 0 -11.56-3.09v310.38a44.37 44.37 0 0 0 22.6-6.18z" fill="#2e2042"/><path d="m162.51 356.5a23.11 23.11 0 0 1 11.55-20l121.84-70.35a23.11 23.11 0 0 1 3.86-1.77v-7.71a23.13 23.13 0 0 0 -11.55 3.09l-121.83 70.35a23.09 23.09 0 0 0 -11.56 20v118.69a23.1 23.1 0 0 0 10.52 19.37l2.25 1.47a23.14 23.14 0 0 1 -5.08-14.46z" fill="#5c4a82"/><path d="m299.76 567.05v-302.67a23.11 23.11 0 0 0 -3.86 1.77l-121.84 70.34a23.11 23.11 0 0 0 -11.55 20v118.69a23.14 23.14 0 0 0 5.08 14.46l109.58 71.23a44.36 44.36 0 0 0 22.59 6.18z" fill="#3e2e59"/></g><path d="m213.83 292.27-144.94 69.41v-20.35l144.94-69.4z" fill="#fbb040"/><path d="m213.83 292.27 144.94 69.41v-20.35l-144.94-69.4z" fill="#e28340"/></svg>