<svg enable-background="new 0 0 45 45" viewBox="0 0 45 45" xmlns="http://www.w3.org/2000/svg" xmlns:xlink="http://www.w3.org/1999/xlink"><clipPath id="a"><path d="m0 36h36v-36h-36z"/></clipPath><g transform="matrix(1.25 0 0 -1.25 0 45)"><path d="m0 0-18-5v-29l18-2 18 2v29z" transform="translate(18 36)"/><path d="m0 0v-36l18 2v29z" fill="#292f33" transform="translate(18 36)"/><g fill="#ffd983"><path d="m0 0v-3.407l4.229-.612v3.306z" transform="translate(22.454 21.493)"/><path d="m0 0v-3.24l3.299-.477v3.161z" transform="translate(29.454 20.312)"/><path d="m0 0v-3.513l1.683-.244v3.473z" transform="translate(18 22.244)"/><path d="m0 0 .539-.077v3.083l-.539.091z" transform="translate(35.461 16.203)"/></g><path d="m0 0v-3.083l.539.077v3.097z" fill="#ffac33" transform="translate(0 19.209)"/><path d="m0 0v-3.473l1.683.244v3.513z" fill="#ffac33" transform="translate(16.317 21.96)"/><path d="m0 0v-3.161l3.299.478v3.239z" fill="#ffac33" transform="translate(3.247 19.756)"/><path d="m0 0v-3.306l4.229.612v3.407z" fill="#ffac33" transform="translate(9.317 20.78)"/><g clip-path="url(#a)"><path d="m0 0v.042c0 .421-.143.763-.32.763s-.32-.342-.32-.763v-.042c-.208-.217-.354-.621-.354-1.103 0-.513.162-.949.392-1.152.064-.195.164-.33.282-.33s.218.135.282.33c.23.203.393.639.393 1.152 0 .482-.147.886-.355 1.103" fill="#ffd983" transform="translate(21.389 20.869)"/><path d="m0 0v.042c0 .421-.143.763-.32.763s-.32-.342-.32-.763v-.042c-.208-.217-.354-.621-.354-1.103 0-.513.162-.949.392-1.152.064-.195.164-.33.282-.33s.218.135.282.33c.23.203.393.639.393 1.152 0 .482-.147.886-.355 1.103" fill="#ffd983" transform="translate(28.388 19.8)"/><path d="m0 0v.039c0 .393-.134.712-.299.712s-.298-.319-.298-.712v-.039c-.195-.203-.331-.58-.331-1.03 0-.479.151-.886.366-1.075.06-.182.153-.309.263-.309.111 0 .204.127.263.309.216.189.367.596.367 1.075 0 .45-.137.827-.331 1.03" fill="#ffd983" transform="translate(34.406 18.77)"/><g fill="#ffac33"><path d="m0 0v.042c0 .421.143.763.32.763s.32-.342.32-.763v-.042c.208-.217.354-.621.354-1.103 0-.513-.162-.949-.392-1.152-.064-.195-.164-.33-.282-.33s-.218.135-.282.33c-.23.203-.393.639-.393 1.152 0 .482.147.886.355 1.103" transform="translate(14.611 20.869)"/><path d="m0 0v.042c0 .421.143.763.32.763s.32-.342.32-.763v-.042c.208-.217.354-.621.354-1.103 0-.513-.162-.949-.392-1.152-.064-.195-.164-.33-.282-.33s-.218.135-.282.33c-.23.203-.393.639-.393 1.152 0 .482.147.886.355 1.103" transform="translate(7.612 19.8)"/><path d="m0 0v.039c0 .393.134.712.299.712s.298-.319.298-.712v-.039c.195-.203.331-.58.331-1.03 0-.479-.151-.886-.366-1.075-.06-.182-.153-.309-.263-.309-.111 0-.204.127-.263.309-.216.189-.367.596-.367 1.075 0 .45.137.827.331 1.03" transform="translate(1.595 18.77)"/><path d="m0 0v-3.5l18 3.268v3.763z" transform="translate(0 24.854)"/></g><path d="m0 0v-3.763l18-3.268v3.5z" fill="#ffd983" transform="translate(18 28.386)"/></g></g></svg>