<svg height="400" width="400" xmlns="http://www.w3.org/2000/svg"><path d="m371.0827 690.56299h-.58593q-1.5625 4.88281-5.66407 9.375-4.10156 4.49219-8.59375 7.61719l-35.74218 24.21875v.58593q2.34375.97657 6.83593 2.34375 4.6875 1.36719 9.76563 2.53907 5.07812 1.17187 9.96094 2.14843 4.88281.78125 7.8125.78125 4.88281 0 9.375-2.34375 4.6875-2.34375 7.8125-6.83593zm160.74219 44.72656q0 1.95313-.19531 4.49219-.19531 2.34375-.58594 4.88281-.19531 2.53906-.58594 4.88281-.39062 2.14844-.78125 3.51563-.78125 2.73437-2.34375 7.8125-1.5625 4.88281-3.71093 9.76562-1.95313 4.6875-4.49219 8.39844-2.53906 3.51563-5.07813 3.51563-8.20312 0-16.79687-1.75782-8.59375-1.95312-16.40625-5.85937-7.8125-4.10156-14.25781-10.54688-6.44532-6.64062-10.15625-16.01562-3.90625 8.39844-8.00782 16.01562-3.90625 7.42188-8.98437 13.08594-5.07813 5.46875-11.71875 8.78906-6.44531 3.32032-15.42969 3.32032-9.375 0-15.42969-2.73438-6.05468-2.73437-9.96093-8.00781-3.90625-5.27344-6.25-12.89063-2.34375-7.61718-4.29688-17.38281h-.58594q-11.71875 23.63281-24.80468 23.63281-9.375 0-17.96875-.78125-8.59375-.97656-16.60157-2.53906-3.32031-.58594-7.03125-1.5625-3.51562-.97656-6.44531-2.34375-2.92969-1.36719-4.88281-3.125-1.95313-1.95312-1.95313-4.49219 0-2.73437 2.34375-8.39843 2.53907-5.66407 5.66407-11.71875 3.32031-6.25 6.44531-11.71875 3.125-5.46875 4.6875-8.00782 1.36719-2.14843 7.03125-6.83593 5.85937-4.6875 13.86719-10.15625 8.20312-5.46875 17.38281-10.9375 9.17969-5.46875 17.38281-8.98438 0-2.14844-.19531-3.90625 0-1.95312 0-4.10156 0-3.125.39062-6.05469.39063-3.125 1.36719-6.05469 2.73438-7.03125 7.03125-11.91406 4.49219-5.07812 9.57031-9.375h.39063v41.99219q0 10.74219.78125 22.85156.78125 11.91406 2.73437 22.46094 2.34375 13.67187 8.98438 19.53125 6.83594 5.66406 16.99219 5.66406 10.15625 0 17.1875-6.25 7.03125-6.25 14.25781-17.57812l-8.59375-64.0625q-.39063-3.125-.97656-6.83594-.39063-3.90625-.78125-7.42188-.19532-3.71093-.39063-7.03125-.19531-3.32031-.19531-5.46875 0-3.90625 1.17187-8.39843 1.17188-4.6875 4.29688-9.57032 2.14844-3.51562 5.46875-6.44531 3.32031-3.125 7.22656-6.44531h.19531q.58594 6.83594 1.17188 13.47656.58594 6.64063 1.5625 13.47656l7.61719 62.89063q.97656 7.42187 2.14843 14.84375 1.36719 7.22656 4.10157 11.91406 2.14843 3.90625 6.25 8.00781 4.29687 3.90625 9.375 7.22657 5.07812 3.125 10.35156 5.46875 5.46875 2.14843 10.15625 2.73437 3.90625-1.36719 3.90625-7.61719-4.88281-25.78125-8.78906-51.17187-3.71094-25.58594-6.44532-51.5625-.58593-4.88281-.78125-8.20313-.19531-3.51562-.19531-5.46875 0-3.90625 1.17188-8.39843 1.36718-4.49219 4.10156-9.17969 2.34375-4.10156 4.88281-7.22656 2.73438-3.125 5.27344-6.25h.39062q.19532 3.32031.58594 6.83593.58594 3.32032 1.17188 7.8125.78125 4.29688 1.5625 9.96094.78125 5.66406 1.75781 13.47656l9.375 65.03907q1.95312 13.47656 2.53906 24.60937.78125 11.13281.78125 16.40625zm60.9375-1.95312q0 15.625-5.66406 30.27343-2.92969 7.8125-12.69531 24.80469l-3.51563-1.95312q.58594-5.66407.97656-13.08594.58594-7.42188.58594-9.96094 0-20.3125-3.32031-56.64062-3.125-36.52344-7.61719-76.17188-2.73437-24.02344-6.05469-49.02344 3.90625-8.59375 8.78907-18.55468 5.07812-9.96094 9.57031-18.75 3.125 22.26562 7.8125 60.9375 4.88281 38.67187 7.61719 69.72656 3.51562 38.67187 3.51562 58.39844zm-146.67969-197.46094q0 9.375-6.64062 21.875h-4.29688q.39063-3.125.58594-5.85938.19531-2.73437.19531-4.10156 0-11.71875-6.64062-23.04687 1.95312-3.32032 4.10156-6.83594 2.34375-3.71094 5.07813-7.8125 3.90625 7.42187 5.66406 14.45312 1.95312 6.83594 1.95312 11.32813zm27.92969 34.96094q0 5.66406-.97656 10.74218-.97656 4.88282-3.51563 8.78907-2.34375 3.90625-6.44531 6.25-3.90625 2.14843-9.76562 2.14843-3.51563 0-6.44532-.97656-2.92968-1.17187-6.64062-3.32031-3.90625 5.85937-7.61719 8.98437-6.05469 5.46875-13.08594 5.46875-8.20312 0-12.30468-3.71093-4.10157-3.71094-4.10157-12.30469 0-4.49219 1.36719-8.59375 1.36719-4.10156 3.90625-9.57031l4.10156-1.5625q0 1.5625-.39062 4.49218-.39063 2.92969-.39063 5.07813 0 3.51562 1.75782 6.64062 1.75781 2.92969 5.27343 2.92969 8.39844 0 13.47657-9.57031 1.17187-2.14844 2.53906-6.83594 1.5625-4.88281 3.32031-11.13281h4.10156q.78125 4.29687 1.36719 6.83594.78125 2.34375 1.17188 3.32031 2.53906 5.66406 8.20312 5.66406 6.83594 0 11.32813-8.20312 3.51562-7.03125 3.51562-14.64844l4.10156-.97656q.78125 3.32031 1.36719 7.22656.78125 3.90625.78125 6.83594z" transform="translate(-243.822657 -478.939157)"/></svg>