<svg enable-background="new 0 0 1055 827" viewBox="0 0 1055 827" xmlns="http://www.w3.org/2000/svg"><path d="m52.6 827.6v-315s-6-59 28-89c0 0-167-225 226-386 393 161 226 386 226 386 66.9 66.9 364.1 55.4 517.1 55.4" fill="none" stroke="#0bda51" stroke-linejoin="round" stroke-width="73"/><path d="m149.5 443.5c19.7-19.7 43.5-29.5 71.5-29.5 27.7 0 51.5 9.8 71.2 29.5s29.5 43.5 29.5 71.4v310.8h-80.7v-80.7h-40.2v80.7h-80.8v-310.8c0-27.9 9.8-51.7 29.5-71.4zm91.4 220.8v-149.4c0-5.6-2-10.4-5.9-14.3s-8.6-5.9-14.1-5.9c-5.6 0-10.4 2-14.3 5.9s-5.9 8.7-5.9 14.3v149.3h40.2z"/><g enable-background="new"><path d="m506.6 745.4c-.2 22.2-8 41.1-23.6 56.7s-34.5 23.5-56.7 23.6h-81v-277.7h81c22.2.2 41.1 8 56.7 23.6s23.5 34.5 23.6 56.7zm-64.6-116.9c0-4.4-1.6-8.1-4.7-11.3-3.2-3.2-6.9-4.7-11.3-4.7h-16.2v148.6h16.2c4.4 0 8.1-1.6 11.3-4.7 3.2-3.2 4.7-7 4.7-11.5z"/><path d="m686.8 548v278h-64.6v-62.8h-32.2v62.8h-64.6v-278h64.6v150.6h32.2v-150.6z"/><path d="m730.9 564.8c15.8-15.8 34.8-23.6 57.2-23.6 22.2 0 41.2 7.9 56.9 23.6s23.6 34.8 23.6 57.2v203.7h-64.6v-64.6h-32.2v64.6h-64.6v-203.7c.1-22.3 7.9-41.4 23.7-57.2zm73.1 131.7v-74.5c0-4.5-1.6-8.3-4.7-11.5-3.2-3.2-6.9-4.7-11.3-4.7-4.5 0-8.3 1.6-11.5 4.7s-4.7 7-4.7 11.5v74.5z"/><path d="m1050.9 548.2v277.3h-64.4v-68.7l-32.4-75.6v144.3h-64.4v-277.3h64.4v1.6l32.4 75.6v-77.2z"/></g></svg>