<?xml version="1.0" encoding="utf-8"?>
<!-- Generator: Adobe Illustrator 24.1.1, SVG Export Plug-In . SVG Version: 6.00 Build 0)  -->
<svg version="1.1" id="Layer_1" xmlns="http://www.w3.org/2000/svg" xmlns:xlink="http://www.w3.org/1999/xlink" x="0px" y="0px"
	 viewBox="0 0 512 512" style="enable-background:new 0 0 512 512;" xml:space="preserve">
<style type="text/css">
	.st0{fill:#231F20;}
</style>
<g>
	<path class="st0" d="M485.7,228.3H94.5l36-35.7c10.8-10.8,10.8-28.4,0-39.3s-28.4-10.8-39.3,0l-83,83C-2.7,247.1-2.7,264.6,8,275.5
		l0.1,0.2l83,83c10.8,10.8,28.3,10.9,39.1,0.2l0.2-0.2c10.8-10.8,10.9-28.3,0.2-39.1l-0.2-0.2l-36-35.7h391.2
		c14.2-0.7,25.6-12.1,26.3-26.3V256C512,241.2,500.4,229.1,485.7,228.3z"/>
	<path class="st0" d="M40.3,394.3h445.4c14.5,0,26.3,11.8,26.3,26.3v2.8c0,14.5-11.8,26.3-26.3,26.3H40.3
		c-14.5,0-26.3-11.8-26.3-26.3v-2.8C14,406.1,25.8,394.3,40.3,394.3z"/>
	<path class="st0" d="M40.3,62.3h445.4c14.5,0,26.3,11.8,26.3,26.3v2.8c0,14.5-11.8,26.3-26.3,26.3H40.3
		c-14.5,0-26.3-11.8-26.3-26.3v-2.8C14,74.1,25.8,62.3,40.3,62.3z"/>
</g>
</svg>
