<svg viewBox="0 0 500 500.14" xmlns="http://www.w3.org/2000/svg"><path d="m250 .14c-138.07 0-250 111.93-250 250s111.93 250 250 250 250-111.93 250-250-111.93-250-250-250zm-150 305.15a55.15 55.15 0 1 1 55.14-55.15 55.15 55.15 0 0 1 -55.14 55.15zm150 0a55.15 55.15 0 1 1 55.14-55.15 55.15 55.15 0 0 1 -55.14 55.15zm150 0a55.15 55.15 0 1 1 55.14-55.15 55.15 55.15 0 0 1 -55.14 55.15z" fill="#1d71b8"/><path d="m250 0v195a55.15 55.15 0 0 1 0 110.29v194.71c138.07 0 250-111.93 250-250s-111.93-250-250-250zm150 305.29a55.15 55.15 0 1 1 55.14-55.15 55.15 55.15 0 0 1 -55.14 55.15z" fill="#009fe3"/></svg>