<svg height="1404.62" viewBox="0 0 1404.62 1404.62" width="1404.62" xmlns="http://www.w3.org/2000/svg"><path d="m317.73 0h769.16a317.73 317.73 0 0 1 317.73 317.73v769.16a317.73 317.73 0 0 1 -317.73 317.73h-769.16a317.73 317.73 0 0 1 -317.73-317.73v-769.16a317.73 317.73 0 0 1 317.73-317.73z" fill="none"/><path d="m1404.62 1086.89v-208.16l-400.07-243.58-282.89 110.65v636.12l26.75 22.7h338.48c175.48 0 317.73-142.25 317.73-317.73z" fill="#2dc82d"/><g fill="#fff"><path d="m835.54 1404.62h-266.45l92.07-593.89h82.3z"/><path d="m824.52 331.31 11.37 23a19.4 19.4 0 0 0 14.61 10.62l25.42 3.69a19.41 19.41 0 0 1 10.76 33.11l-18.37 17.99a19.41 19.41 0 0 0 -5.59 17.18l4.35 25.32a19.41 19.41 0 0 1 -28.17 20.46l-22.73-12a19.44 19.44 0 0 0 -18.07 0l-22.73 12a19.41 19.41 0 0 1 -28.17-20.46l4.34-25.32a19.43 19.43 0 0 0 -5.58-17.18l-18.39-17.93a19.41 19.41 0 0 1 10.74-33.11l25.41-3.69a19.43 19.43 0 0 0 14.59-10.62l11.36-23a19.41 19.41 0 0 1 34.85-.06z"/><path d="m763.94 810.73h-123.26a34.69 34.69 0 1 0 0 69.38h123.26a34.69 34.69 0 0 0 0-69.38z"/></g><path d="m650.4 880.11 132.61 185.67-28.79-185.67z" fill="#cff9cd"/><path d="m798.63 845.42a34.69 34.69 0 0 0 -34.69-34.69h-123.26a34.7 34.7 0 0 0 -31.84 20.91l155.1 48.47a34.69 34.69 0 0 0 34.69-34.69z" fill="#cff9cd"/><path d="m892.55 655.18c-178 0-322.27-144.28-322.27-322.27a321.4 321.4 0 0 1 20-112c-122.77 45.51-210.27 163.64-210.27 302.24 0 178 144.29 322.27 322.27 322.27 138.6 0 256.73-87.5 302.24-210.27a321.4 321.4 0 0 1 -111.97 20.03z" fill="#fff"/></svg>