<svg xmlns="http://www.w3.org/2000/svg" viewBox="0 0 2709 2356"><path d="M345.64 1668.94h45v371.1h-45z" fill="#265a3f"/><path d="M247.49 1815.07h33v183.2h-33z" fill="#f3f1da"/><path d="M692.12 1704.97H909v325.97H692.12zM390.64 1698.99H647v331.95H390.64z" fill="#dedabd"/><path d="M909 1705.77H296.14v-62.28H909v62.28z" fill="#49765a"/><path d="M2067.55 1698.99h256.49v331.95h-256.49zM1797 1698.99h226v331.95h-226z" fill="#3d6e4d"/><path d="M1917.03 2030.93s17-240-94-269-139 137-128 269M965.63 1989.93s17-240-94-269-139 137-128 269" fill="#5d482b"/><path d="M959.62 2040.03s17-240-94-269-139 137-128 269M566.03 1998.27s8.46-191.72-46.76-214.88c-55.22-23.16-69.16 109.44-63.68 214.88M2138.42 1998.27h125.87s9.64-221.52-53.26-248.26c-62.9-26.74-78.84 126.44-72.61 248.26z" fill="#5d482b"/><path d="M2087 1659.94h78v102h-78z" fill="#dfccaa"/><path d="M2417 1247.6h226v252.34h-226z" fill="#dbc097"/><path d="M61 1250.26h224v254.67H61z" fill="#ccab7d"/><path d="M445 1162.02h1812.54v21H445z" fill="#f2e9d8"/><path d="M468.63 1183.02h1772.36v19.94H468.63z" fill="#ccac7b"/><path d="M505 1206.74h1696v32.43H505z" fill="#e5d2b4"/><path d="M505 1242.94h1696v82H505z" fill="#3c6a4e"/><path d="M1479.03 316.93c524 304 438 650 438 650h-1098c-16-148 86-332 86-332 96-196 356-318 356-318z" fill="#265e2b"/><path d="M1257 292.94h222v24h-222z" fill="#e2d5bc"/><path d="M1397.03 206.93c2 44 66 86 66 86h-176c20 0 64.27-86 64.27-86z" fill="#d1c99e"/><path d="M1397.03 206.93c16-86-27.23-82-27.23-82-57.23 10-18.51 82-18.51 82z" fill="#c7ac7f"/><path d="m1369.77 124.94-.26-42" fill="#00000000" stroke="#231f20" stroke-width="5"/><path d="M1321.04 41.47c0 10.994 4.637 21.55 12.881 29.324 8.245 7.774 19.439 12.146 31.099 12.146s22.854-4.372 31.099-12.146C1404.363 63.02 1409 52.464 1409 41.47c0-10.994-4.637-21.55-12.881-29.324C1387.874 4.372 1376.68 0 1365.02 0s-22.854 4.372-31.099 12.146c-8.244 7.774-12.881 18.33-12.881 29.324z" fill="#c2b885"/><path d="M787 998.94h1164v32H787z" fill="#d9c2a0"/><path d="M817.3 1030.94h1104.95v131.09H817.3z" fill="#e3dcc0"/><path d="M763 966.94h1206v32H763z" fill="#debe9c"/><path d="M877.03 1162.02s-10-93.09 38-90.09 32 90.09 32 90.09zM1176.71 1162.02s-10-93.09 38-90.09 32 90.09 32 90.09z" fill="#604d2f"/><path d="M1330.15 1162.02s-10-93.09 38-90.09 32 90.09 32 90.09z" fill="#634d2e"/><path d="M1488.71 1162.02s-10-93.09 38-90.09 32 90.09 32 90.09z" fill="#5f4c2d"/><path d="M1634.61 1162.02s-10-93.09 38-90.09 32 90.09 32 90.09z" fill="#5d4f31"/><path d="M1788.48 1162.02s-10-93.09 38-90.09 32 90.09 32 90.09z" fill="#5f4d2e"/><path d="M1026.71 1162.02s-10-93.09 38-90.09 32 90.09 32 90.09z" fill="#655031"/><path d="M647 1324.94h38v175h-38z" fill="#386c4e"/><path d="M2023 1324.94h37v175h-37z" fill="#30684e"/><path d="M1105 1324.94h42v65h-42z" fill="#396e4d"/><path d="M1561.27 1324.94H1604v65h-42.73z" fill="#3d6e51"/><path d="M1147 1324.94h414.27v65H1147z" fill="#d8d7b5"/><path d="M801 1389.94h1168v19H801z" fill="#f1efda"/><path d="M814 1408.94h1137v24H814z" fill="#f0eada"/><path d="M854 1432.94h1064v30H854z" fill="#dac49d"/><path d="M685 1324.94v175h129v-91h-13v-19h304v-65H685z" fill="#81704f"/><path d="M814 1499.94h95v-37h-55v-30h-40v67z" fill="#624c36"/><path d="M1604 1324.94h419v65h-419z" fill="#d2c49f"/><path d="M1894 1499.94v-37h24v-30h33v-24h18v-19h54v110h-129z" fill="#cab886"/><path d="M1797 1462.94h97v37h-97z" fill="#685a34"/><path d="M1797 1499.94h912v24h-912z" fill="#dfceae"/><path d="M1797 1523.94h895v26h-895z" fill="#eeebd8"/><path d="M2659 1659.94h-862v-90h862v90z" fill="#3d6e4d"/><path d="M2087 1761.94h78v19h-78z" fill="#2b5e46"/><path d="M2099 1780.94h57v17h-57z" fill="#528164"/><path d="M2406 1659.94h76v102h-76z" fill="#dcc7a3"/><path d="M2406 1761.94h76v19h-76z" fill="#4e7f66"/><path d="M279.03 600.27c-4.67-80-66-118-66-118h-73.34c-81.33 46-65.33 118-65.33 118z" fill="#78a57b"/><path d="M169 414.94h14v67.33h-14z" fill="#dacb9e"/><path d="M74.33 600.27H279v38H74.33z" fill="#d0bf9d"/><path d="M84.33 619.27H99v19H84.33z" fill="#665233"/><path d="M113 619.27h11.33v19H113z" fill="#624f2f"/><path d="M140.33 619.27h16v19h-16z" fill="#5c4929"/><path d="M169 619.27h14v19h-14z" fill="#634f31"/><path d="M199.67 619.27h10.67v19h-10.67z" fill="#604c2f"/><path d="M228.33 619.27H239v19h-10.67z" fill="#604c2c"/><path d="M253.67 619.27h12.67v19h-12.67z" fill="#5f4e34"/><path d="M68.33 638.27h215.33v30.67H68.33z" fill="#306646"/><path d="M84.33 668.94h182v82.67h-182z" fill="#dccead"/><path d="M99 690.27h38v61.33H99z" fill="#5c4929"/><path d="M156.33 692.94H195v58.67h-38.67z" fill="#634f31"/><path d="M215 692.94h38.67v58.67H215z" fill="#604c2f"/><path d="M77 751.6h202v31.33H77z" fill="#306646"/><path d="M333 793.6H14.33v-10.67H333v10.67z" fill="#ebdcc5"/><path d="m23.67 793.6 49.39 49.33h198.61l48.66-49.33H23.67z" fill="#d1b995"/><path d="M73.06 842.94h200.61v149.33H73.06z" fill="#dcc6a4"/><path d="M49 992.27h254.67v18H49z" fill="#e6e1c8"/><path d="M53.67 1010.27h242.67v47.33H53.67z" fill="#33644a"/><path d="M67 1057.6h218V1193H67z" fill="#c09e77"/><path d="M81 1089.6h46.67V1193H81zM155.67 1089.6h40V1193h-40zM230.33 1092.93h32v100.06h-32z" fill="#604c2f"/><path d="M29 1192.99h284.67v17.94H29z" fill="#ebe9d3"/><path d="M36.33 1210.93h273.33v18.67H36.33z" fill="#d4be9a"/><path d="M53.67 1229.6H291v20.67H53.67z" fill="#e5dbc2"/><path d="M132.35 1356.26s46-52 92 7.33v141.34h-42.52l-29.27-30s18.51-8.86 11.54-37.52c0 0-20.55 2.54-31.73-84" fill="#604c2f"/><path d="m68.79 1504.93 19.25-23a26.18 26.18 0 0 0-19.25-8.23c-12.42 0 19.87-30.15 32.29-37.7 12.42-7.55-3.73-15.1-3.73-15.1s-28.56-13.71 7.45-24.68c0 0 16.15-67.87 23.6-71.3 7.45-3.43 16.77 61 16.77 61s6.82 53.48 28.56 53.48c0 0 6.21 29.49-16.15 39.77l26.08 25.72H68.79z" fill="#5d9a31"/><path d="M0 1504.93h909v21.01H0z" fill="#f1edd9"/><path d="M21 1526.43h888v21.01H21z" fill="#f0efdc"/><path d="M36.33 1549.43H909v21.01H36.33z" fill="#f1ead4"/><path d="M2493.03 480.93h69s75 49 66 117h-202s-7-64 67-117z" fill="#3e6d41"/><path d="M2521.67 420.94H2535v60h-13.33z" fill="#c8ba90"/><path d="M2425.82 597.94h202.93v41h-202.93z" fill="#d5ba92"/><path d="M2439.67 618.44H2453v20.5h-13.33z" fill="#645030"/><path d="M2464.33 621.61h11.33v17.33h-11.33zM2495.67 618.44h12v20.5h-12zM2521.67 621.61H2535v17.33h-13.33zM2552.33 621.61h18v17.33h-18zM2580.33 621.61h8.67v17.33h-8.67z" fill="#5d492a"/><path d="M2606.33 621.61h14v17.33h-14z" fill="#685a34"/><path d="M2418.33 638.94H2637v28h-218.67z" fill="#3b6b4c"/><path d="M2439.67 666.94h180.67v86.67h-180.67z" fill="#c5905a"/><path d="M2456.33 688.94h31.33v64.67h-31.33zM2515 688.94h31.33v64.67H2515z" fill="#5d492a"/><path d="M2570.33 694.27h36v59.33h-36z" fill="#685a34"/><path d="M2425.82 753.6h202.93v29.33h-202.93z" fill="#376445"/><path d="M2370.33 782.94h322v16h-322z" fill="#ebdac4"/><path d="M2432.33 843.6h196.42v147.33h-196.42z" fill="#d6b68a"/><path d="m2382.33 798.94 50 44.66h193.34l48.66-44.66h-292z" fill="#d9ba93"/><path d="M2401 990.94h255.33v20.67H2401z" fill="#e6d7b8"/><path d="M2407 1011.6h242v45.33h-242z" fill="#386e53"/><path d="M2417 1056.93h226v136.06h-226z" fill="#cfb78d"/><path d="M2439.67 1090.93h42v102.06h-42zM2509 1090.93h37.33v102.06H2509z" fill="#5d492a"/><path d="M2583.67 1096.48H2625v96.51h-41.33z" fill="#685a34"/><path d="M2382.33 1192.99H2671v13.74h-288.67z" fill="#cda780"/><path d="M2397 1206.74h271.33v24.19H2397z" fill="#d8bc94"/><path d="M2411 1230.93h235.33v16.67H2411z" fill="#ecd9c1"/><path d="m2492.66 1496.97-2.63-134.52s39.33-50.4 85.33-9.81c0 0-20.67 55.63-6.67 61.52 14 5.89-19.33 32.75-15.33 31.76 4-.99 12 45.5-20.67 51s-40.03.05-40.03.05z" fill="#685a34"/><path d="M2611.03 1430.26c71.33 36 4 41.33 4 41.33l28 28.34-116.34-.49c32.33-27.48 15.67-53.52 15.67-53.52s28.67-22.33 15.33-31.76c-13.34-9.43 6.67-64.57 6.67-64.57l8.67-2.66v-22h17.33s0 44.65 18.67 52c18.67 7.35 2 53.33 2 53.33z" fill="#448f34"/><path d="M909 1462.94h134v568H909z" fill="#4a4a4a"/><path d="M1043 1462.94h621v174h-621zM1797 2030.94h-133v-568h133v568z" fill="#4d4d4d"/><path d="M1043 1636.94h37v674h-37zM1080 1636.94h584v32h-584zM1626 1668.94h38v642h-38z" fill="#c9b97d"/><path d="M1626.5 2310.94h-546v-642h546v642z" fill="#3d654b"/><path d="M1109.68 2310.93s-40.13-603 251.27-600c291.4 3 237.9 600 237.9 600z" fill="#c9b081"/><path d="m1138 2030.94 423 5v58h-423v-63z" fill="#a9a9aa"/><path d="m1133 2093.94-5 217h442l-9-217h-428z" fill="#3f4544"/><path d="M1181 2093.94h332v26h-332z" fill="#a9a9aa"/><path d="M1156 2148.94h387v26h-387zM1130.63 2196.93h435.72v25.91h-435.72zM1128 2249.94h442v61h-442z" fill="#b6b6b5"/><path d="M1253.03 2040.03h222s17-240-94-269-139 137-128 269z" fill="#5d482b"/><path d="M2423.04 1780.94h45v183.54h-45zM2111.05 1797.94h36v258.04h-36z" fill="#ccb17b"/><path d="M2105.03 2055.97h48.05v19.5h-48.05zM2087 2075.47h78v18.46h-78z" fill="#ccb17b"/><path d="M2315.04 1698.99h49.5v331.95h-49.5z" fill="#3d6e4d"/><path d="M2001.56 1698.99h66v331.95h-66z" fill="#528164"/><path d="M1797 1659.94h609V1699h-609z" fill="#3d6e4d"/><path d="M1664 2030.94h190.56v34.79H1664z" fill="#5d482b"/><path d="M1824.52 2030.94h680.97v64.2h-680.97z" fill="#b6b6b5"/><path d="M1824.52 2095.14h727.52v86.83h-727.52z" fill="#414142"/><path d="M1664 2055.97h160.52v166.86H1664z" fill="#cab282"/><path d="M1664 2222.84h190.56v94.12H1664z" fill="#386c4f"/><path d="M1824.52 2181.97h727.52v67.97h-727.52z" fill="#3f4544"/><path d="M1838.03 2258.97s-123 76.5 57 88.5l289.44-13.5s40.54-73.5-30-82.5c0 0 25.45-76.5-109.52-76.5 0 0-121.46-1.57-138 15-16.54 16.57-88.44-3-68.92 69z" fill="#388734"/><path d="M2161.74 2237.69s-92.88 91 43 105.29l218.56-16.06s30.62-87.45-22.62-98.16c0 0 19.22-91-82.7-91 0 0-91.72-1.88-104.18 17.8-12.46 19.68-66.77-3.54-52.06 82.13z" fill="#74992c"/><path d="M2423.04 1964.48h45v66.46h-45z" fill="#ccb17b"/><path d="M861.5 2030.94H1043v34.79H861.5z" fill="#4a4a4a"/><path d="M878.11 2065.72H1043v157.11H878.11z" fill="#ece5d1"/><path d="M861.5 2225.85H1043v88.1H861.5z" fill="#3d654b"/><path d="M54.65 1570.44h854.34v82.5H54.65z" fill="#49765a"/><path d="M224.33 1652.94h71.81v105.66h-71.81z" fill="#d1bb8d"/><path d="M224.33 1758.6h79.31v22.34h-79.31z" fill="#49765a"/><path d="M236.14 1774.86h48.85v52.89h-48.85z" fill="#08a651"/><path d="M549.63 1705.77h73.5v56.17h-73.5z" fill="#d1bb8d"/><path d="M540.63 1758.6h82.5v12.84h-82.5z" fill="#49765a"/><path d="M566.13 1767.69h31.5v26.5h-31.5z" fill="#49765a"/><path d="M566.13 1797.94h31.5v264.5h-31.5z" fill="#c9b97d"/><path d="M647 1704.16h45.12v326.78H647z" fill="#265a3f"/><path d="M224.33 2030.94H895v64.2H224.33z" fill="#f3f1da"/><path d="M158.15 2095.14h719.96v247.84H158.15z" fill="#4a4a4a"/><path d="M247.49 1998.27h33v32.66h-33z" fill="#08a651"/><path d="M95.66 2258.97s-123 76.5 57 88.5l289.44-13.5s40.54-73.5-30-82.5c0 0 25.44-76.5-109.52-76.5 0 0-121.47-1.57-138 15s-88.41-3-68.92 69z" fill="#388734"/><path d="M385.3 2247.28s-92.88 91 43 105.29l218.56-16.06s30.62-87.44-22.62-98.15c0 0 19.22-91-82.7-91 0 0-91.72-1.88-104.18 17.8-12.46 19.68-66.79-3.55-52.06 82.12z" fill="#74992c"/><path d="M526.48 2267.67s-123 76.49 57 88.49l289.44-13.5s40.54-73.49-30-82.49c0 0 25.44-76.5-109.52-76.5 0 0-121.47-1.58-138 15s-88.37-3-68.92 69zM2281.15 2238.11s-123 76.5 57 88.49l289.44-13.5s40.54-73.49-30-82.49c0 0 25.45-76.5-109.52-76.5 0 0-121.46-1.57-138 15-16.54 16.57-88.42-3-68.92 69z" fill="#52a233"/></svg>