<?xml version="1.0" encoding="utf-8"?>
<!-- Generator: Adobe Illustrator 26.3.1, SVG Export Plug-In . SVG Version: 6.00 Build 0)  -->
<svg version="1.1" id="Ebene_1" xmlns="http://www.w3.org/2000/svg" xmlns:xlink="http://www.w3.org/1999/xlink" x="0px" y="0px"
	 viewBox="0 0 960 1280" style="enable-background:new 0 0 960 1280;" xml:space="preserve">
<g transform="translate(0.000000,1280.000000) scale(0.100000,-0.100000)">
	<path d="M5270,1242v782l64,47c256,188,339,541,194,828c-44,87-116,172-194,230l-64,47l-3,720l-2,721l65,23c143,50,252,119,355,225
		c142,144,209,319,209,540c0,110-23,265-50,329c-6,16-4,18,12,11c72-30,169-52,234-54c146-4,250,37,350,138c97,98,138,191,145,333
		c6,117-34,225-109,297l-36,35l100,36c134,50,201,91,291,180c54,53,87,96,111,145c63,125,72,169,73,340c0,186-3,198-117,438
		c-113,240-122,267-122,367c1,65,14,104,56,161c39,53-3,74-84,42c-139-55-298-196-298-264c0-15-6-14-46,8c-26,14-83,37-128,50
		c-151,46-420,39-545-13l-33-14l14,23c34,52,169,278,207,347c56,100,222,438,256,520c83,204,172,467,189,560c2,14,9,45,14,70
		c10,40,16,76,28,160c19,129,24,312,10,410c-26,185-42,229-139,373c-129,193-284,316-454,363c-69,19-202,26-258,15
		c-22-5-58-12-80-16l-39-7l46,50c53,57,86,115,92,166c8,67-30,120-214,296c-173,164-268,279-321,382c-60,118-90,226-90,321v47h-40
		h-40l2-43c5-128-70-323-182-469c-22-29-123-134-224-233c-100-99-190-195-200-214c-37-74-13-162,72-252c25-27,44-49,42-49
		s-38,7-79,14c-257,50-493-48-677-280c-151-190-192-285-210-494c-11-117-6-269,11-380c2-14,7-45,10-70c4-25,9-53,12-62
		c5-16,8-32,19-88c17-87,82-293,139-437c109-279,262-588,421-848c37-61,77-125,87-142l20-33l-34,14c-77,33-180,46-323,42
		c-149-5-221-20-331-70c-31-14-58-26-59-26c-2,0-5,10-9,23c-16,65-126,167-245,228c-110,56-179,46-132-19c90-128,80-229-49-490
		c-128-262-134-281-135-452c0-151,4-186,31-267c69-206,224-348,476-434l66-23l-48-53c-67-73-93-144-94-253c0-106,6-137,49-228
		c62-131,180-227,319-261c96-23,240-6,360,44c12,5,17,5,13-2c-3-5-9-25-12-44s-10-50-15-69c-34-133-32-312,6-458
		c61-233,262-433,533-532l76-28l3-725l2-724l-55-42c-159-120-253-314-253-521s94-401,253-521l55-41v-318v-471V460h340h340V1242z
		 M4820,2277c-159,72-240,268-176,425c105,259,443,286,583,48c134-227-36-510-297-496C4893,2256,4845,2266,4820,2277z M4741,5080
		c-41,12-91,31-113,42c-69,36-145,114-180,186c-31,62-33,74-33,167c0,55,3,113,7,130c13,54,95,207,179,335c178,273,200,309,253,421
		c25,53,49,110,52,128c7,36,24,52,24,23c0-53,102-257,214-427c163-246,186-283,224-360c51-101,64-151,63-237c-1-119-32-197-108-280
		c-25-26-69-61-97-77c-46-27-161-64-226-74C4938,5048,4809,5060,4741,5080z M5840,6080c-85,43-183,143-232,235
		c-64,122-80,185-84,325c-2,69-1,137,2,151c5,24,9,22,77-49c68-69,207-172,234-172c7,0,13-5,13-10c0-6-5-10-12-10
		c-20,0-218-63-218-69c0-3,35-22,78-41c196-88,370-204,407-272c16-30,17-40,7-62C6078,6031,5959,6020,5840,6080z M3770,6062
		c-18,13-38,30-43,39c-41,66,124,203,396,329c53,25,97,48,97,51c0,6-198,70-218,69c-6,0-12,4-12,10c0,5,6,10,14,10
		c36,0,214,139,279,218c21,26,27,30,28,15c0-10,2-27,5-38c6-28,5-173-1-210c-13-73-19-94-43-155c-82-211-254-358-418-360
		C3817,6040,3794,6046,3770,6062z M5996,6761c-206,70-365,296-391,556c-2,24-3,43-1,43s14-19,26-43c39-76,114-136,170-137
		c3,0,5,56,4,125c-3,125,5,174,34,207c20,24,145,87,215,109c84,25,248,24,330-3c121-40,204-99,253-184c37-62,45-99,45-199
		c0-252-106-385-375-470C6213,6735,6078,6734,5996,6761z M3527,6831c-117,39-183,76-240,137c-84,91-117,188-114,341
		c2,83,6,104,30,153c89,181,334,277,567,223c72-17,217-84,242-112c32-35,40-77,39-206c0-140-1-140,62-113c39,16,93,75,119,130l19,41
		l-5-65c-9-141-91-315-197-421C3910,6800,3729,6763,3527,6831z M4902,7727c-32,117-170,349-402,673c-252,352-394,579-493,790
		c-80,169-119,290-144,440c-10,56-10,281-1,336c10,58,52,149,95,206c114,148,345,249,509,221c177-31,225-180,126-398
		c-40-88-102-190-168-277c-24-31-44-59-44-61c0-6,147,26,231,49c32,9,80,31,108,49l50,33l25-72c15-39,41-116,59-170l33-100h34
		c30,0,35,4,47,40c7,21,34,98,59,170l46,132l49-33c28-18,76-40,108-49c86-24,231-55,231-49c0,3-13,22-28,42
		c-117,149-202,308-228,422c-11,47-6,137,9,165c49,95,171,133,319,100c150-33,292-125,366-235c70-106,84-156,88-321
		c2-80,0-163-5-185s-12-54-15-70c-11-67-18-94-47-180c-83-249-253-540-599-1025c-217-303-352-531-382-644c-7-25-15-46-18-46
		S4908,7701,4902,7727z"/>
</g>
</svg>
