<?xml version="1.0" encoding="utf-8"?>
<!-- Svg Vector Icons : http://www.onlinewebfonts.com/icon -->
<!DOCTYPE svg PUBLIC "-//W3C//DTD SVG 1.1//EN" "http://www.w3.org/Graphics/SVG/1.1/DTD/svg11.dtd">
<svg version="1.1" xmlns="http://www.w3.org/2000/svg" xmlns:xlink="http://www.w3.org/1999/xlink" x="0px" y="0px" viewBox="0 0 1000 1000" enable-background="new 0 0 1000 1000" xml:space="preserve">
<metadata> Svg Vector Icons : http://www.onlinewebfonts.com/icon </metadata>
<g><g transform="translate(0.000000,512.000000) scale(0.100000,-0.100000)"><path d="M4567.6,4783.6c-221-128.8-1082.1-626.6-1912.3-1107.1C1824.9,3198,1058.1,2754,948.5,2690.6l-196-113.4l3.8-2460.1l5.8-2460.1l2112.2-1218.5C4037.1-4232.2,4994.2-4780,5001.9-4780c13.5,0,1552.9,886,3982.3,2291l263.3,153.8V122.9v2456.2l-80.7,48C5974.4,4470.3,5011.5,5021.9,4994.2,5020C4980.8,5018.1,4790.5,4912.4,4567.6,4783.6z M5472.8,3795.7c763-442,1664.4-962.9,2106.4-1216.6c228.7-130.7,409.4-244.1,403.6-249.9c-15.4-15.4-1349.2-786.1-1358.8-786.1c-3.8,0-186.4-105.7-407.5-232.5c-219.1-128.8-732.3-426.7-1139.7-661.2C3572-219.2,3301-376.8,2472.6-855.4c-465.1-269.1-855.3-493.9-868.7-497.8c-21.1-7.7-25,322.9-25,1718.2v1727.8l313.3,180.6c713,411.3,1341.5,774.5,2194.9,1266.6c497.8,286.4,909.1,520.8,914.8,520.8C5009.6,4060.9,5221,3941.8,5472.8,3795.7z M8421.1-125v-1725.9l-811.1-469c-447.8-257.5-1214.7-701.5-1706.7-984c-540-313.3-903.3-511.2-922.5-505.5c-25,11.5-691.9,394-2398.6,1379.9l-580.4,336.3l128.8,75c73,42.3,338.3,196,592,342.1c253.7,146.1,584.3,338.3,736.1,426.7c151.8,86.5,280.6,159.5,288.3,157.6c7.7,0,73-82.6,146.1-184.5c403.6-559.3,916.8-1043.6,1101.3-1043.6c128.8,0,301.7,124.9,603.5,434.4C6085.9-1380.1,6516.4-736.2,6735.5-177c105.7,271,153.8,490.1,155.7,713.1l1.9,196l86.5,48.1c48,28.8,384.4,223,749.6,434.4c365.2,211.4,668.8,384.4,678.4,386.3C8415.3,1600.8,8421.1,824.4,8421.1-125z"/><path d="M4779,2559.9c-190.3-25-484.3-130.7-666.9-240.2C3893,2189,3623.9,1927.6,3470.1,1695c-244.1-365.2-355.6-722.7-355.6-1137.8c-1.9-182.6,42.3-461.3,76.9-499.7c7.7-7.7,217.2,101.9,465.1,246L4106.3,563l9.6,198c9.6,176.8,19.2,213.3,82.6,346c244.1,515.1,863,666.9,1349.2,332.5c34.6-23.1,73-5.8,413.2,194.1c205.7,121.1,388.2,226.8,403.6,236.4c23.1,15.4-3.8,50-138.4,180.7c-253.7,244.1-509.3,390.2-832.2,472.8C5222.9,2567.6,4951.9,2583,4779,2559.9z"/></g></g>
</svg>