<svg viewBox="0 0 613.1 701.3" xmlns="http://www.w3.org/2000/svg" xmlns:xlink="http://www.w3.org/1999/xlink"><linearGradient id="a" gradientTransform="matrix(1 0 0 -1 0 702)" gradientUnits="userSpaceOnUse" x2="247.1" y1="115.4" y2="115.4"><stop offset="0" stop-color="#f9a50d"/><stop offset="1" stop-color="#facc08"/></linearGradient><path d="m301.7 69.8a21.7 21.7 0 1 1 21.7-21.7 21.68 21.68 0 0 1 -21.7 21.7zm0-69.8a48.1 48.1 0 1 0 48.1 48.1 48.06 48.06 0 0 0 -48.1-48.1" fill="#facc08"/><path d="m386.8 621.1a80.2 80.2 0 1 1 -80.2-80.2 80.19 80.19 0 0 1 80.2 80.2z" fill="#f9a50d"/><path d="m548.9 508.3-73.9 45.4h-321l-85.9-45.1 8.9-13.3a94.25 94.25 0 0 0 16-52.5v-139.7c0-104.7 90.5-230.4 201.4-230.6 158.2-.3 219.2 142.6 222.4 228.5v122.3a129.58 129.58 0 0 0 32.1 85z" fill="#f9a50d"/><path d="m613.1 553.7a65.89 65.89 0 0 1 -65.8 65.8h-481.5a65.8 65.8 0 0 1 0-131.6h481.5a66 66 0 0 1 65.8 65.8" fill="#facc08"/><path d="m247.1 553.7v65.8h-181.3a66 66 0 0 1 -65.8-65.8z" fill="url(#a)"/></svg>