<svg viewBox="0 0 726.82 1216.07" xmlns="http://www.w3.org/2000/svg"><path d="m726.82 48.17v1167.9h-11.81v-45.78h-48.53v45.78h-11.82v-45.78h-48.57v45.78h-11.82v-45.78h-48.57v45.78h-11.82v-45.78h-48.56v45.78h-11.82v-45.78h-48.57v45.78h-11.82v-45.78h-48.57v45.78h-11.82v-45.78h-48.57v45.78h-11.82v-45.78h-48.57v45.78h-11.81v-45.78h-48.57v45.78h-11.82v-45.78h-48.57v45.78h-11.82v-45.78h-48.57v45.78h-11.82v-45.78h-38.96v45.78h-11.82v-91.56h.75v-1032.95h-.75v-91.56h11.82v48.17h38.21v-48.17h11.82v48.17h48.57v-48.17h11.82v48.17h48.57v-48.17h11.81v48.17h48.57v-48.17h11.82v48.17h48.57v-48.17h11.82v48.17h48.57v-48.17h11.82v48.17h48.57v-48.17h11.81v48.17h48.57v-48.17h11.82v48.17h48.57v-48.17h11.82v48.17h48.57v-48.17h11.82v48.17h48.57v-48.17h11.82v48.17h48.52v-48.17h11.82v48.17z" fill="#8fc3cc"/><path d="m1766.59 821.35v691.53h-533.18v-690.19a142.77 142.77 0 0 1 1.79-22.38c4.17-26.06 15.17-49.56 28.83-64.71 47.82-53.1 67.54-59.72 116-90.94 57.23-36.84 98-95.29 119.94-156.2v-1.34c21.92 60.91 62.72 119.36 119.94 156.21 48.5 31.21 68.21 37.83 116 90.92 13.89 15.44 25 39.48 29 66.06a140.94 140.94 0 0 1 1.68 21.04z" fill="#7ca9b4" transform="translate(-1136.59 -391.96)"/><path d="m218.59 398.6v253.75l144.34 24.43v-321.68z" fill="#414143"/><path d="m362.93 355.1 145.3 44.65v250.71l-145.3 26.32z" fill="#211b1d"/><path d="m218.59 448.97 144.34-43.5v41.09l-144.34 45.17z" fill="#ecd47e"/><path d="m362.93 405.47 145.3 45.2v41.06l-145.3-45.17z" fill="#eac53f"/><g transform="translate(-1136.59 -391.96)"><path d="m1644.82 963.15v79.27l-145.3 26.33-144.34-24.44v-81.16s5.08 31.44 18.81 40 26.86-5.5 29.91-17.7c0 0 20.14 57.38 45.78 9.47 0 0 11.59 29 25.33 27.76s24.51-32.68 24.51-32.68 9.66 34.56 26.15 32.7 23.19-29.7 23.19-29.7 11.6 27.26 25.94 20.25 20.14-28.09 20.14-28.09 12.51 29.92 28.69 18.62 21.19-40.63 21.19-40.63z" fill="#d1d2d3"/><path d="m1644.82 963.15v79.27l-145.3 26.33v-78.75s9.66 34.56 26.15 32.7 23.19-29.7 23.19-29.7 11.6 27.26 25.94 20.25 20.14-28.09 20.14-28.09 12.51 29.92 28.69 18.62 21.19-40.63 21.19-40.63z" fill="#211b1d" opacity=".1"/></g></svg>