<svg enable-background="new 0 0 512.001 512.001" viewBox="0 0 512.001 512.001" xmlns="http://www.w3.org/2000/svg"><path d="m363.581 154.823 120.02 16.689c27.002 3.755 37.979 36.843 18.573 55.992l-86.251 85.111c-7.705 7.604-11.176 18.513-9.281 29.172l21.215 119.303c4.774 26.842-23.303 47.504-47.512 34.966l-107.599-55.729c-9.613-4.979-21.06-4.909-30.611.187l-106.91 57.046c-24.053 12.833-52.381-7.484-47.937-34.381l19.751-119.554c1.765-10.681-1.839-21.546-9.638-29.056l-87.287-84.049c-19.639-18.91-9.069-52.13 17.886-56.215l119.806-18.159c10.704-1.623 19.924-8.408 24.655-18.145l52.962-108.988c11.916-24.521 46.775-24.734 58.991-.362l54.292 108.331c4.85 9.679 14.153 16.35 24.875 17.841z" fill="#ffd92d"/><path d="m116.012 215.178c0-18.717 1.865-36.957 4.603-54.91l-92.616 14.036c-26.957 4.086-37.524 37.305-17.887 56.216l87.292 84.049c7.797 7.509 11.402 18.374 9.635 29.056l-19.75 119.554c-4.446 26.897 23.887 47.215 47.937 34.381l74.676-39.846c-58.157-64.198-93.89-149.09-93.89-242.536z" fill="#ffe571"/><path d="m502.176 227.506c19.403-19.149 8.426-52.238-18.574-55.992l-120.021-16.691c-10.723-1.491-20.027-8.162-24.874-17.841l-54.291-108.332c-12.221-24.372-47.08-24.159-58.992.362l-22.592 46.483c77.051 51.426 127.846 139.099 127.846 238.685 0 49.983-12.838 96.943-35.31 137.862l84.977 44.013c24.207 12.538 52.286-8.124 47.515-34.966l-21.22-119.302c-1.892-10.659 1.577-21.568 9.281-29.172z" fill="#ffa81e"/></svg>