<svg height="120" viewBox="0 0 104 120" width="104" xmlns="http://www.w3.org/2000/svg"><path d="m104 90-52 30-52-30v-60l52-30 52 30z" fill="#19a82d"/><path d="m104 90-52 30v-120l52 30z" fill="#009416"/><g fill="#fff"><path d="m20.89 49.67c2.09.2.89-3.55 1.65-4.23.14-.34.37-.34.37.09v3.18a1.58 1.58 0 0 0 1.24 1.57c.55 0 .94 0 1.16.51.08 1.84.18 3.67.27 5.51 0 0 1.28.36 1.34-3.1.06-2-.4-3.73-.13-4.13 0-.39.51-.41.85-.22.55.39.79.86 1.64.67 1.29-.35 2.07-1 2.09-2a8.48 8.48 0 0 0 -.59-2.84c.06-.17-.25-.62-.19-.79.23.37.58.33.66 0a2.78 2.78 0 0 0 -1.11-1.72c-.46-.41-1.13-.33-1.37.52a4.58 4.58 0 0 0 1.05 3.06 3 3 0 0 1 .27 1.53.81.81 0 0 1 -1.07-.21s-1-.77-1-.94a3.66 3.66 0 0 0 -.09-2.44 3.24 3.24 0 0 0 -.68-1.35.47.47 0 0 0 -.77 0 4.61 4.61 0 0 0 .09 3.25c.23.7.6 1.14.43 1.14-.15.39-.44.3-.65-.15a11.56 11.56 0 0 1 -.36-3c-.1-.78-.2-2.46-.71-2.88-.32-.43-.78-.22-1 .17a15.59 15.59 0 0 0 .05 2.28 24.05 24.05 0 0 1 .64 3.65c.05 1.73-1 .76-.95-.1a7.91 7.91 0 0 0 0-3.31c-.17-.44-.37-.55-.79-.48s-1.17.9-1.4 2.43a12.25 12.25 0 0 0 -.29 1.49c-.12.79-.64 1.35-1-.11-.32-1.06-.51-3.67-1-3.06-.2 2.05-.38 5.62 1.35 6.01z"/><path d="m24.04 51.16c-1.72 0-4.24 2.27-4.31 3.51 1.82-.88 3.6-1.72 5.45-2.63-.3-.44-.02-.85-1.14-.88z"/><path d="m33.54 57.86c.75-2.49 0-4.37.24-4.6h.06c.92 1 2.21.13 2.5-.22a.41.41 0 0 1 .63-.06 1.49 1.49 0 0 0 2.24-.7 20.44 20.44 0 0 0 .31-2.76 2.63 2.63 0 0 0 -1 .41l-.07.13c-.05.27-.08.53-.13.8v.06l-.09.08c-.16.09-.45 0-.46-.2-.22-1-1.14-1.15-1.7.42-.37.3-1 .36-1.12-.09.09-1.06-.34-1.2-1.18-.7-.28-2.09-.55-4.09-.82-6.17.35 0 .67.25 1-.16-.35-1.09-1.09-3.31-1.51-3.52l-.06-.06h-.06-.11c-.11 0-.22.08-.36.11a1 1 0 0 0 -.73 1.27c.53 3.21.87 5.65 1.4 8.85.08.38-.23.88-.64.83-.69-.47-.86-1.42-2-1.38a2.29 2.29 0 0 0 -1.94 1.83 4.38 4.38 0 0 0 0 2.1 1.69 1.69 0 0 0 1.94.47c.52-.22.94-.62 1.12-.62h-.06c0 .2 0 1.87-2.4 3.16-1.48.67-2.65.82-3.29-.39-.39-.76 0-3.66-.93-3-2.87 7.42 6.73 8.46 7.8.31.07-.23.29-.46.44-.41a.35.35 0 0 1 .14.28c-.22 7.38-7.42 7.89-8.64 5.57a7 7 0 0 1 -.43-2.49 1.25 1.25 0 0 0 -.29-.8c-.3-.22-.69.35-.77 1.35a8.37 8.37 0 0 0 -.09 1.79c.28 5.83 9.56 3.32 11.06-1.49zm-3.58-5c-.08.1-.33.06-.51.06a.48.48 0 0 1 -.45-.23c-.07-.19.12-.39.2-.54a.6.6 0 0 1 .3-.13.47.47 0 0 1 .51.32.59.59 0 0 1 -.05.48z"/><path d="m34.38 45.98v.12a8 8 0 0 0 2 0v-.12h-.27v.23c.88-.21 3.45-3.35 3.45-3.35s-.2-.21-.34-.33-.11-.26 0-.39a1.09 1.09 0 0 0 .13-1.66 1.59 1.59 0 0 0 -1.46 0 1.24 1.24 0 0 0 -.21 1.65c.36.17.73.54.49.74-1 1.1-3.71 3-3.85 3.28v-.17zm4.05-4.7a.57.57 0 0 1 .47.36c.1.23 0 .45-.12.5a.52.52 0 0 1 -.51-.35c-.06-.23-.01-.46.16-.51z"/><path d="m20.67 60.28c-.45.92-.64.29-.68-.22a12.19 12.19 0 0 1 .13-2.59c.11-.73 0-.51-.23-.22-1 1.64-1.12 4.08-.55 4.81a1.17 1.17 0 0 0 1.16.39c.64-.28.92-1.59.77-2.06s-.35-.35-.6-.11z"/><path d="m54.43 43.03c1.21 1.62 2.36 3.24 3.47 4.92.18 1.26.31 2.48.39 3.7a73.75 73.75 0 0 1 .07 8.81c.5 0 1.31-.81 1.59-2a58.4 58.4 0 0 0 -.09-6.09c0-.41 0-.89-.06-1.41 1.3 2.13 2.56 4.38 3.79 6.85.46-.21.36-2.75.09-3.11-1-2.14-2.36-4.25-2.79-5.06-.16-.3-.7-1.11-1.33-2.06-.12-1.34-.24-2.48-.33-2.82-.2-1.42.59.16.48-.67a9.12 9.12 0 0 0 -2-3.69c-.29-.42-.28-.5-.74.11a2.68 2.68 0 0 0 -.2 1.63c-.12-.18-.27-.38-.48-.64l-1.51-1.29c-.33-.24-1.15-.67-1.29 0a4 4 0 0 0 .07 1.51 5.31 5.31 0 0 0 .87 1.31zm2.55-.1c0 .14.06.27.08.41.07.3.12.59.18.89-.27-.37-.47-.65-.57-.75-.6-.71 0-.47.31-.55z"/><path d="m63.96 58.45a13.64 13.64 0 0 1 -4.62 3.38c-.2.21.48 1.15 1.36 1.15 1.46-.17 2.76-1 4-3.17a5.75 5.75 0 0 0 .9-2.44 53.9 53.9 0 0 0 -1-12.34 2 2 0 0 1 0-.86c.09-.11.41 0 .59-.28s-.67-2.39-1.19-3.2c-.19-.37-.25-.62-.56 0a4.69 4.69 0 0 0 -.52 2.32c.7 4.86.92 9.11 1.38 14a1.93 1.93 0 0 1 -.34 1.44z"/><path d="m83.28 44.98a6.33 6.33 0 0 1 -.14-1.25c.09-.24.57 0 .74-.25s-1.24-2.18-1.76-3c-.19-.37-.25-.61-.56 0a3.85 3.85 0 0 0 -.3 2.33 129.42 129.42 0 0 1 1.47 15.06 4.54 4.54 0 0 1 -.29 1.24 10.48 10.48 0 0 1 -1.44 1.69c-.48.36-1.5.7-1.83 1-1.06.61-1.06 1.31-.2 1.34 1.46-.17 3.2-.3 4.39-2.11a7 7 0 0 0 .72-2.72 63.75 63.75 0 0 0 -.8-13.33z"/><path d="m72.17 50.28c0-.67.08-1.57.12-2.13 0-.21.06-.45.26-.5s.56.21.56 0a2.87 2.87 0 0 0 -.36-1.37.77.77 0 0 0 -1.37.4c0 .28.14.44.11.7s-.19.24-.55.07l-.24-.46c-.28-.17-.66 0-.9.17a1.32 1.32 0 0 0 -.08 1.09c.4.69 1.79 1.97 2.45 2.03z"/><path d="m71.67 43.58q1.45 1.8 3 3.8c.21 2.71.27 5.2.48 7.91 0 1.16-.39 2.71-.73 2.85a.77.77 0 0 1 -.86 0 10.33 10.33 0 0 1 -1.25-1.68.77.77 0 0 0 -1.22 0c-1 1-1.46 2.8-2.14 4.06-.18.28-.68.52-1.23 0a5.54 5.54 0 0 1 -.74-4v.06c-1.25 1.41-.7 3.74-.42 4.25a3.34 3.34 0 0 0 1.54 1.76 1.09 1.09 0 0 0 1.62-.18c.73-.76.74-2.71 1.09-3.09a.64.64 0 0 1 1.14-.28 2.86 2.86 0 0 0 1 .91 1.76 1.76 0 0 0 2.31.16 2.67 2.67 0 0 0 1.23-1.5c.34-.93.17-5.77.1-8.49q.77 1.09 1.53 2.22a54.82 54.82 0 0 1 .25 7c0 .45 1.56-1.33 1.55-2.17s0-1.4 0-2c.78 1.24 1.54 2.51 2.25 3.79.44-.24.29-2.74 0-3.09-.73-1.24-1.7-2.6-2.44-3.65-.14-1.32-.35-2.9-.44-3.38-.14-.74-.28-1.86-.49-2.74a9 9 0 0 1 -.18-1.56c.08-.25.41 0 .58-.28s-.84-3.08-1.39-3.88c-.2-.36-.56-.23-1 .35-.41.39-.26 1.26-.1 2.1.4 2.12.77 4.29 1 6.45-.52-.79-1.18-1.76-1.82-2.68 0-.24-.08-.4-.08-.41s-.09-1.74-.16-2.15c0-.17-.06-.21.12-.19a.93.93 0 0 0 .32.21c.18 0 .35-.28.24-.57-.57-1-1.15-2.11-1.71-3.16-.14-.13-.32-.28-.54 0a1.25 1.25 0 0 0 -.42.94c0 .75.18 1.51.23 2.26l.06.3-.19-.22c-1.46-1.54.67-.25-.28-1.44a11.61 11.61 0 0 0 -1.72-1.69c-.35-.22-.55-.65-.67.08a15.72 15.72 0 0 0 -.05 1.91 2.57 2.57 0 0 0 .63 1.11z"/><path d="m74.23 80.82-1.63.19c-1.39-.17-2.41-.19-4-.25.14-.18.4-.88.09-1.15-.09-.07-.21 0-.37 0v-.07c-.08-.11-.12-.4-.18-.47v-.28.14a1 1 0 0 0 -.34 1.88c-10.91 0-27.66-.15-31.25-.15-2 0-8.36-.22-8.48-.22 1.36 2 3.33 2.41 5.92 2.45h33.69a2.26 2.26 0 0 0 .4 2.35h.05c.43.1.61-.21.76-.43a41.9 41.9 0 0 0 4.9 0c.24.35.48.68.94.63.79-.18 1.42-.26 1.44-1.88-.05-.15-.13-2.91-1.94-2.74zm-.78 3h-.07-1.33v-.07c-.12-.37-1-.35-1.22-.06v.15a12.52 12.52 0 0 1 -2 0c-.2-.26-.18-.72.06-.83 1.59.08 3.09 0 4.68.09a.59.59 0 0 1 -.12.68z"/><path d="m42.22 48.04c.84.35 1.37-1.25 1.71-3 .24-.5.41-.55.53-.3 0 2.33.17 2.85.77 3.55a1.9 1.9 0 0 0 2.51 0l1-1a.62.62 0 0 1 .93-.01c.32.29.27.79 1 1.13s1.79.06 2.07-.43c.38-.66.47-.88.65-1.13s.73-.2.73-.09-.31.41-.13.77c.33.24.4.09.59 0 .68-.32 1.18-1.79 1.18-1.79 0-.55-.27-.5-.47-.39s-.28.21-.54.37-1 .27-1.28-.23a18.83 18.83 0 0 1 -.58-2s-.43-.94 0-1c.21 0 .63.15.7-.21s-.45-1.36-.9-1.86a1 1 0 0 0 -1.47-.05c-.37.35-.32.73-.39 1.09a1.7 1.7 0 0 0 .35 1.47 4.48 4.48 0 0 1 .81 3 1.2 1.2 0 0 1 -1.07.54c-.29-.06-.75-.18-1-2-.18-1.38 0-3.32-.54-4.23-.21-.55-.36-1.08-.88-.14a2.19 2.19 0 0 0 -.3 2.08 6.21 6.21 0 0 1 .33 3.23 4.88 4.88 0 0 1 -.62.88 1 1 0 0 1 -1.31.18 1.42 1.42 0 0 1 -.93-1.13 15.59 15.59 0 0 0 -.12-3.57.65.65 0 0 0 -1.08-.22 8.2 8.2 0 0 0 -2 4c-.3 1-.62.69-.85.3-.55-.52-.59-4.56-1.25-3.89-.98 3.07.69 6.41 1.85 6.08z"/><path d="m58.05 54.64h.12-.06l-.35-.19h-6.23l-.18-.17h-.08a.45.45 0 0 1 .22-.12c1.49-.2 4.14-.64 4.32-3.18a2.09 2.09 0 1 0 -4.09.09c-.06.34.11 1.06-.24 1.14-2.29.07-4.81 1.73-4.81 2.61h-.09v-.05a.63.63 0 0 1 -.31-.66 11.46 11.46 0 0 0 -1.6-5.17c-.32-.33-.46-.31-.55-.31v-.16-.07l-.34.26c-.31.35-.37.58-.35 1.29 0 .07.59 1.67 1.08 2.79a8.72 8.72 0 0 1 .41 3.77 9.26 9.26 0 0 1 -3.8 4 2 2 0 0 1 -1.59 0h-.1a1.25 1.25 0 0 1 -.52-.91h.1c1.26-.88 2.75-1.59 3.87-4a4 4 0 0 0 .13-2.85 2.68 2.68 0 0 0 -.64-1.32c.21-.1.77.31.85 0a4.17 4.17 0 0 0 -1.09-2 .91.91 0 0 0 -1.46-.06 1.88 1.88 0 0 0 -.5 2c.25.61 1.24.71 1.24 1.94 0 .07.32.92.08 1.26-.2.6-2.62 2.58-2.79 2.69v.19-.18s0-.18 0-.38c0-.37.08-1.2.08-1.35v.17h.07c-.83 0-1.1 2.08-1.25 2.57-2.09 1.44-4.46 2.48-5.82 3.94-.71 1.12 4.9-1.3 5.55-1.59.12.13.13.6.5 1a3 3 0 0 0 3 1 9.59 9.59 0 0 0 4.37-3.65c.17-.25.44-.44.68-.25.82 1.83 3.17 3.13 6.21 3.26.7-.85.37-1.28.08-1.46-.09-.05-1.51-.61-1.73-1.16s.2-1 .87-1.32a29.61 29.61 0 0 0 5.73-1.1 5.14 5.14 0 0 1 .63-2 1 1 0 0 1 .38-.31zm-5.14-3.91.16-.06a.87.87 0 0 1 .48.13c.25.15.4.36.38.52a.6.6 0 0 1 -.66-.06c-.24-.14-.4-.35-.38-.51zm-2.49 6.25c-.66.23-1.3.41-1.31 1.38a1.39 1.39 0 0 1 0 .85c-.16 0-.39-.13-.56-.22a3.51 3.51 0 0 1 -1.88-2.48.7.7 0 0 1 .65-.74l.07-.07c.69 0 1.71.27 2.6.37.75.04 1.11.68.43.91z"/><path d="m27.34 42.02c.72.34 2.07.2 2-1 0-.11 0-.45 0-.55-.14-.34-.54-.25-.63.1 0 .11 0 .3-.05.36s-.29 0-.29-.29a.51.51 0 0 0 -.12-.28.21.21 0 0 0 -.15 0c-.1 0-.1 0-.15.12a.76.76 0 0 0 -.06.26c0 .12-.06.16-.14.17s-.07 0-.15 0-.1-.07-.1-.16a.82.82 0 0 0 0-.28l-.17-.1c-.39 0-.42.45-.4.62s-.12.81.41 1.03z"/><path d="m48.36 50.94c.72.34 2.42.14 2-1 0-.1 0-.44 0-.54-.14-.34-.54-.26-.63.1 0 .11 0 .3-.06.36s-.29 0-.28-.3a.48.48 0 0 0 -.12-.27.21.21 0 0 0 -.15 0c-.1 0-.1 0-.16.11a1.17 1.17 0 0 0 -.05.27c0 .12-.06.16-.14.17s-.07 0-.15 0-.1-.06-.1-.15a.74.74 0 0 0 0-.28l-.25-.13c-.39 0-.42.45-.4.62s-.04.81.49 1.04z"/><path d="m60.67 47.28c.71.34 2.06.19 2-1 0-.1 0-.45 0-.54-.15-.34-.55-.26-.64.1v.36s-.29 0-.28-.3a.56.56 0 0 0 -.12-.27.25.25 0 0 0 -.16 0c-.1 0-.1 0-.15.11a1.18 1.18 0 0 0 -.06.27c0 .11 0 .15-.13.17s-.08 0-.15 0-.1-.07-.1-.15a.84.84 0 0 0 0-.29l-.18-.09c-.39 0-.41.45-.39.62s-.23.75.36 1.01z"/><path d="m61.1 42.75c.25.72-.19 1.41.07 1.51s.59-.75.72-1.53a2.4 2.4 0 0 0 -1-2.21c-.39-.1-1 .13-.77.66-.04.25.84 1.1.98 1.57z"/><path d="m67.67 59.57c.5 0 1.08-1.14 1.32-2.28a19 19 0 0 0 -.13-3.44c0-.92-1-8.39-1.24-9.08-.25-1.32 1-.18.84-.95-.42-1-1.47-2.37-1.8-3.21-.2-.36-.11-.68-.56-.09a7.13 7.13 0 0 0 -.39 3.27c1.09 5.49 2.17 10.54 1.96 15.78z"/><path d="m80.15 44.81c.12.36-.17 1.51.07 1.62s.54-.8.65-1.65c.07-.47-.28-2.11-.86-2.4a.56.56 0 0 0 -.7.72c-.08.28.71 1.18.84 1.71z"/><path d="m36.67 57.28c.21.09.51-.59.62-1.21.06-.35-.27-1.55-.83-1.76-.34-.08-.81 0-.66.53 0 .27.76.61.8 1.25.14.28-.14 1.13.07 1.19z"/><path d="m21.59 41.97c.12.28-.11 1.16.12 1.24s.51-.61.62-1.26c.06-.36 0-1.57-.82-1.82-.34-.08-.81.11-.66.55-.08.2.62.91.74 1.29z"/><path d="m37.84 45.87a1.48 1.48 0 0 0 -.49 2 .94.94 0 0 0 1 .33c.62.08 1-1.16 1-1.16s0-.35-.72.31c-.31.06-.35-.06-.43-.23a1.59 1.59 0 0 1 .1-1c.13-.33-.11-.46-.46-.25z"/><path d="m42.61 42.04a.87.87 0 0 0 .4-.58c.09-.48-.52.23-.59-.31s.25-.71.62-1.19c0-.34 0-.57-.45-.3a2.29 2.29 0 0 0 -.92 1.62c0 .43-.1.43.18.7s.36.3.76.06z"/><path d="m46.92 42.28a5.92 5.92 0 0 0 .44-2c-.13-.72-.62-.7-.94.1a10.33 10.33 0 0 0 -.27 1.9c-.11.43.52.63.77 0z"/><path d="m73.99 50.21s-3.33 2.37-3.41 2.45c-.33.3-.16 1.33 0 1.21a13.22 13.22 0 0 0 3.52-2.45c.15.01.23-1.33-.11-1.21z"/><path d="m73.58 56.64c.22.12.81-.61.79-1.52.06-.47-.17-2.19-.76-2.48a.58.58 0 0 0 -.67.78c-.08.27.41 1.22.54 1.73.12.36-.14 1.38.1 1.49z"/><path d="m54.76 61.61a.5.5 0 0 0 .61.08 10.87 10.87 0 0 1 2.11-.74c.25 0 .24-.7-.17-.72a2.38 2.38 0 0 0 -1.54.47c-.33.08-.38-.12-.45-.3-.08-.44.18-.75.12-1.08a.64.64 0 0 0 -.63-.11 4.51 4.51 0 0 0 -1 .83c-.14.11-.13.2-.08.38s.3.18.52.06.43.15.41.5a.64.64 0 0 0 .1.63z"/><path d="m78.81 61.44c-.13-.16-.44-.07-.64-.09s-.42 0-.27-.34a1.82 1.82 0 0 0 .26-.5c.1-.22 0-.36-.33-.47a2.47 2.47 0 0 0 -.9 0c-.21 0-.28.14-.32.4s.25.37.5.52a.43.43 0 0 1 0 .65c-.23.22-.39.33-.62.55s-.18.47.15.56c.62.18 2.06-.76 2.06-.78a.44.44 0 0 0 .11-.5z"/></g></svg>