<svg viewBox="0 0 235.59 279.2" xmlns="http://www.w3.org/2000/svg"><path d="m374 233.47-18.79 18.53 30.61 31.15a36.28 36.28 0 0 1 -47.36-48.2l-19.08-19.41-3.8-3.88-30-30.5-10.08-10.28a36.26 36.26 0 0 1 -47.36-48.18l30.61 31.15 18.8-18.49-30.55-31.18a36.26 36.26 0 0 1 47.35 48.18l9.78 9.95 18.42 18.76 5.18 5.27 8.48 8.62 21.1 21.47a36.26 36.26 0 0 1 47.34 48.19z" fill="#347abd" transform="translate(-172.21 -48.4)"/><path d="m235.48 208.92h154.89v13.18h-154.89z" fill="#b4bbc6" transform="matrix(.64665666 -.7627812 .7627812 .64665666 -226.02 266.47)"/><path d="m195.82 112.3-10.05-8.53 7.76-19.34 24.2-18.37 10.06 8.53-14.15 26.88z" fill="#8e9aa9"/><path d="m223.3 248.23h79.09v52.73h-79.09z" fill="#339be2" transform="matrix(.64665666 -.7627812 .7627812 .64665666 -288.78 249.14)"/><path d="m230.64 264.05h79.09v33.5h-79.09z" fill="#3682c1" transform="matrix(.64665666 -.7627812 .7627812 .64665666 -290.93 256.94)"/><path d="m236.14 275.93h79.09v19.08h-79.09z" fill="#2d73ad" transform="matrix(.64665666 -.7627812 .7627812 .64665666 -292.54 262.78)"/><path d="m71.63 279.2-30.16-25.57 3.49-14.32 40.23 34.09z" fill="#26689e"/><path d="m123.97 176.68 10.06 8.52 2.3 27.87-40.23-34.1z" fill="#478dc6"/><path d="m351.59 107.55-7-14.86a11.39 11.39 0 0 0 -13.47-6.27l-12.76 3.58a73.63 73.63 0 0 0 -10.16-9.27l2.41-13.06a11.46 11.46 0 0 0 -7.41-12.92l-15.45-5.6a11.44 11.44 0 0 0 -13.94 5.14l-6.55 11.58a73.6 73.6 0 0 0 -14.23.68l-7.46-10.8a11.52 11.52 0 0 0 -14.38-3.9l-14.87 7a11.52 11.52 0 0 0 -6.24 13.54l3.57 13a72.14 72.14 0 0 0 -9.21 10.21l-13-2.46a11.51 11.51 0 0 0 -12.92 7.42l-5.64 15.46a11.57 11.57 0 0 0 5.16 14l11.72 6.61a71 71 0 0 0 .69 13.75l-10.8 7.46a11.53 11.53 0 0 0 -3.89 14.39l6.97 14.77a11.54 11.54 0 0 0 13.54 6.24l13-3.58a72.62 72.62 0 0 0 10.2 9.22l-2.47 12.9a11.49 11.49 0 0 0 7.42 12.92l15.45 5.6a11.5 11.5 0 0 0 14-5.15l6.61-11.7a74.08 74.08 0 0 0 13.31-.63l3.19 4.64 18.6-2 4-9.44-17.17-17.9-3.53-3.64a49.18 49.18 0 1 1 29.52-28.08l19.28 19.12 20.89-26-11.15-6.31a73.14 73.14 0 0 0 -.62-13.74l10.94-7.53a11.51 11.51 0 0 0 3.85-14.39z" fill="#19303f" transform="translate(-172.21 -48.4)"/></svg>