<svg viewBox="0 0 426.78 539.77" xmlns="http://www.w3.org/2000/svg"><g transform="translate(0 -.01)"><path d="m30.85 378.32v-3.24a12.58 12.58 0 0 1 12.58-12.55h15.28a3 3 0 0 0 3-3v-2a3 3 0 0 0 -3-3 14.2 14.2 0 0 1 -14.2-14.2 14.2 14.2 0 0 1 14.2-14.2h71.74a14.2 14.2 0 0 1 14.2 14.2 14.19 14.19 0 0 1 -9.81 13.5 4.43 4.43 0 0 0 -3.1 4.21 4.4 4.4 0 0 0 4.31 4.49h26.17a12.59 12.59 0 0 1 12.57 12.58v3.24a12.6 12.6 0 0 1 -4.28 9.46h20.49a14.2 14.2 0 0 1 14.2-14.2h59.33a3.34 3.34 0 0 0 .37-6.67h-10a14.2 14.2 0 0 1 -14.2-14.2 14.2 14.2 0 0 1 14.19-14.21h24.51a14.12 14.12 0 0 1 -2-7.22 14.2 14.2 0 0 1 14.2-14.2h98.4a14.2 14.2 0 0 1 14.2 14.2 14.12 14.12 0 0 1 -2 7.22h24.58v-190a30.07 30.07 0 0 0 -13.78-25.29l-183.28-118.42a30.1 30.1 0 0 0 -32.66 0l-183.29 118.37a30.09 30.09 0 0 0 -13.77 25.34v239.3h35.14a12.59 12.59 0 0 1 -4.29-9.51z" fill="#424f99"/><path d="m190.33 167.81h26.4a9.9 9.9 0 0 0 9.9-9.9 9.9 9.9 0 0 0 -9.9-9.9h-26.4a9.9 9.9 0 0 0 -9.9 9.9 9.9 9.9 0 0 0 9.9 9.9z" fill="#b8bedd"/><path d="m113.05 201.44h20.11c4.16 0 7.54-4.37 7.54-9.75 0-5.39-3.38-9.75-7.54-9.75h-20.11c-4.16 0-7.54 4.36-7.54 9.75 0 5.38 3.34 9.75 7.54 9.75z" fill="#b8bedd"/><path d="m414.68 315.62a13.58 13.58 0 0 0 4.63-10.23v-3.5a13.6 13.6 0 0 0 -13.6-13.6h-16.51a3.24 3.24 0 0 1 -3.24-3.23v-2.06a3.24 3.24 0 0 1 3.24-3.24 15.35 15.35 0 0 0 15.35-15.35 15.35 15.35 0 0 0 -15.35-15.41h-77.58a15.35 15.35 0 0 0 -15.35 15.35 15.37 15.37 0 0 0 10.58 14.65 4.77 4.77 0 0 1 3.35 4.55 4.76 4.76 0 0 1 -4.75 4.77h-28.17a13.6 13.6 0 0 0 -13.6 13.6v3.5a13.63 13.63 0 0 0 4.63 10.23h-22.1a15.36 15.36 0 0 0 -15.36-15.36h-64.14a3.6 3.6 0 0 1 0-7.2h10.41a15.36 15.36 0 0 0 15.35-15.36 15.35 15.35 0 0 0 -15.35-15.35h-26.49a15.31 15.31 0 0 0 2.14-7.81 15.35 15.35 0 0 0 -15.35-15.35h-106.42a15.35 15.35 0 0 0 -15.36 15.34 15.31 15.31 0 0 0 2.14 7.81h-17.78v130l426.72-1.06v-75.69z" fill="#4d5bb2"/><path d="m373.2 196h-8.35a4.49 4.49 0 0 1 -4.49-4.49 4.53 4.53 0 0 1 3.5-4.39 16.26 16.26 0 0 0 12.36-15.79 16.26 16.26 0 0 0 -16.22-16.22h-90a16.26 16.26 0 0 0 -16.26 16.26 16.26 16.26 0 0 0 16.25 16.27h7.11a4.2 4.2 0 0 1 4.2 4.2 4.2 4.2 0 0 1 -4.2 4.2h-61.1a12.44 12.44 0 0 0 -12.43 12.43 12.44 12.44 0 0 0 12.43 12.43h98.73a7.92 7.92 0 0 0 -7.91 7.9 7.91 7.91 0 0 0 7.91 7.91h51.47a7.91 7.91 0 0 0 7.91-7.91 7.92 7.92 0 0 0 -7.91-7.9h7a12.44 12.44 0 0 0 12.43-12.43 12.44 12.44 0 0 0 -12.43-12.47z" fill="#b8bedd"/><path d="m13.77 416.59 183.29 118.41a30.1 30.1 0 0 0 32.66 0l183.28-118.41a30.07 30.07 0 0 0 13.77-25.28v-52.78h-24.57a14.12 14.12 0 0 0 2-7.22 14.2 14.2 0 0 0 -14.2-14.2h-98.43a14.2 14.2 0 0 0 -14.2 14.2 14.12 14.12 0 0 0 2 7.22h-24.52a14.2 14.2 0 0 0 -14.2 14.2 14.2 14.2 0 0 0 14.2 14.2h9.63a3.34 3.34 0 1 1 .37 6.67h-59.7a14.2 14.2 0 0 0 -14.15 14.2h-20.49a12.6 12.6 0 0 0 4.28-9.46v-3.24a12.59 12.59 0 0 0 -12.57-12.57h-26.07a4.4 4.4 0 0 1 -4.41-4.39 4.43 4.43 0 0 1 3.1-4.21 14.19 14.19 0 0 0 9.81-13.5 14.2 14.2 0 0 0 -14.2-14.2h-71.74a14.2 14.2 0 0 0 -14.2 14.2 14.2 14.2 0 0 0 14.2 14.2 3 3 0 0 1 3 3v1.92a3 3 0 0 1 -3 3h-15.28a12.58 12.58 0 0 0 -12.58 12.55v3.24a12.6 12.6 0 0 0 4.28 9.46h-35.13v3.53a30.1 30.1 0 0 0 13.77 25.26z" fill="#5275b2"/><path d="m38.42 316.27h20.11c4.16 0 7.53-4.36 7.53-9.75 0-5.38-3.37-9.75-7.53-9.75h-20.11c-4.17 0-7.54 4.37-7.54 9.75-.03 5.39 3.37 9.75 7.54 9.75z" fill="#b8bedd"/><path d="m81.57 302.31h14.49c3 0 5.43-3.14 5.43-7 0-3.88-2.43-7-5.43-7h-14.49c-3 0-5.43 3.14-5.43 7 0 3.86 2.43 7 5.43 7z" fill="#b8bedd"/><path d="m232.52 237.56a20.68 20.68 0 0 0 -3.33-8.05 20.9 20.9 0 0 0 -5.32-5.33 20.64 20.64 0 0 0 -8.06-3.33 20.28 20.28 0 0 0 -7.53 0 20.84 20.84 0 0 0 -16.71 16.71 20.28 20.28 0 0 0 0 7.53 20.55 20.55 0 0 0 3.34 8 21.06 21.06 0 0 0 5.32 5.33 20.86 20.86 0 0 0 23.64 0 21 21 0 0 0 5.32-5.32 20.79 20.79 0 0 0 3.33-8.06 20.28 20.28 0 0 0 0-7.53z" fill="#fbda40"/><path d="m212.05 300.81a2.57 2.57 0 0 1 -2.57-2.57v-31.66a2.57 2.57 0 0 1 5.13 0v31.67a2.58 2.58 0 0 1 -2.56 2.56z" fill="#fbda40"/><path d="m212.05 219.25a2.57 2.57 0 0 1 -2.57-2.57v-32.27a2.57 2.57 0 1 1 5.13-.32 1.71 1.71 0 0 1 0 .32v32.23a2.58 2.58 0 0 1 -2.53 2.61z" fill="#fbda40"/><path d="m172.82 243.62h-16.25a2.57 2.57 0 0 1 -.32-5.13 1.71 1.71 0 0 1 .32 0h16.25a2.57 2.57 0 0 1 0 5.13z" fill="#fbda40"/><path d="m267.53 243.62h-83.6a2.57 2.57 0 1 1 -.32-5.13 1.71 1.71 0 0 1 .32 0h83.6a2.57 2.57 0 0 1 0 5.13z" fill="#fbda40"/><path d="m172.82 282.85a2.57 2.57 0 0 1 -1.82-4.38l63.64-63.65a2.57 2.57 0 1 1 3.63 3.64l-63.64 63.64a2.56 2.56 0 0 1 -1.81.75z" fill="#fbda40"/><path d="m242.88 212.79a2.57 2.57 0 0 1 -1.82-4.38l8.4-8.4a2.57 2.57 0 0 1 3.63 3.63l-8.4 8.4a2.56 2.56 0 0 1 -1.81.75z" fill="#fbda40"/><path d="m232.94 264.51a2.58 2.58 0 0 1 -1.82-.75l-60.12-60.12a2.57 2.57 0 0 1 3.63-3.63l60.12 60.12a2.57 2.57 0 0 1 -1.81 4.38z" fill="#fbda40"/><path d="m251.32 282.85a2.58 2.58 0 0 1 -1.82-.75l-11.21-11.22a2.57 2.57 0 0 1 3.63-3.63l11.21 11.22a2.57 2.57 0 0 1 -1.81 4.38z" fill="#fbda40"/><path d="m347.85 457.7a23.09 23.09 0 0 0 10.51-19.37v-118.68a23.08 23.08 0 0 0 -11.55-20l-121.87-70.36a23.08 23.08 0 0 0 -11.55-3.09v310.38a44.33 44.33 0 0 0 22.61-6.18z" fill="#2e2042"/><path d="m76.14 326a23.11 23.11 0 0 1 11.55-20l121.83-70.34a22.91 22.91 0 0 1 3.87-1.77v-7.71a23.13 23.13 0 0 0 -11.54 3.08l-121.85 70.38a23.11 23.11 0 0 0 -11.55 20v118.69a23.11 23.11 0 0 0 10.55 19.37l2.26 1.47a23.1 23.1 0 0 1 -5.08-14.46z" fill="#5c4a82"/><path d="m213.39 536.58v-302.67a22.91 22.91 0 0 0 -3.87 1.77l-121.83 70.32a23.11 23.11 0 0 0 -11.55 20v118.71a23.1 23.1 0 0 0 5.08 14.46l109.63 71.23a44.37 44.37 0 0 0 22.54 6.18z" fill="#3e2e59"/></g><path d="m213.39 292.26-144.94 69.42v-20.36l144.94-69.39z" fill="#fbb040"/><path d="m213.39 292.26 144.94 69.42v-20.36l-144.94-69.39z" fill="#e28340"/></svg>