<svg viewBox="0 0 104 120" xmlns="http://www.w3.org/2000/svg"><path d="m104 90-52 30-52-30v-60l52-30 52 30z" fill="#155eac"/><path d="m104 90-52 30v-120l52 30z" fill="#004fa4"/><path d="m62.58 113.9-10.58 6.1-10.58-6.1v-107.8l10.58-6.1 10.58 6.1z" fill="#fff"/><path d="m62.58 113.9-10.58 6.1v-120l10.58 6.1z" fill="#e9e9e9"/><path d="m0 48.86h104v21.21h-104z" fill="#fff"/><path d="m52 48.86h52v21.21h-52z" fill="#e9e9e9"/><path d="m104 83.3v6.7l-7.08 4.08-96.92-58.45v-5.63l7.99-4.61z" fill="#fff"/><path d="m104 83.3v6.7l-7.08 4.08-48.94-29.51 8.62-9.86z" fill="#e9e9e9"/><path d="m0 83.3v6.7l7.08 4.08 96.92-58.45v-5.63l-7.99-4.61-48.03 28.97z" fill="#fff"/><path d="m55.32 64.99 48.68-29.36v-5.63l-7.99-4.61-48.03 28.97z" fill="#e9e9e9"/><path d="m0 52.4h104v14.13h-104z" fill="#d73f45"/><path d="m52 52.4h52v14.13h-52z" fill="#d02228"/><path d="m59.05 115.93-7.05 4.07-7.05-4.07v-111.86l7.05-4.07 7.05 4.07z" fill="#d73f45"/><path d="m59.05 115.93-7.05 4.07v-120l7.05 4.07z" fill="#d02228"/><path d="m98.52 26.84-35.94 21.73h8.26l31.7-19.41z" fill="#d02228"/><path d="m4.17 92.41 37.09-22.64h-8.28l-32.98 19.44v.79z" fill="#d73f45"/><path d="m2.41 28.61 32.84 19.96h-8.49l-26.76-16.23v-2.34z" fill="#d73f45"/><path d="m102.68 90.76-34.59-20.99h8.18l27.73 16.85v3.38z" fill="#d02228"/></svg>