<svg viewBox="0 0 339.5 339.5" xmlns="http://www.w3.org/2000/svg"><g fill="#f23333" transform="translate(-55.5 -101)"><path d="m225.25 101c-93.6 0-169.75 76.15-169.75 169.75a168.86 168.86 0 0 0 35.41 103.64 319.32 319.32 0 0 1 24.74-34.26 129 129 0 0 1 -20.15-69.38c0-71.54 58.21-129.75 129.75-129.75s129.75 58.21 129.75 129.75-58.21 129.75-129.75 129.75a129 129 0 0 1 -54.34-11.94 297.2 297.2 0 0 1 -29.25 29.88 168.69 168.69 0 0 0 83.59 22.06c93.6 0 169.75-76.15 169.75-169.75s-76.15-169.75-169.75-169.75z"/><path d="m228 236s-7.5-10.5-23.5-43.5c0 0-6-8-29 6s-19 29-19 29 9 20 30 54c0 0-50 62.34-70.5 91.67s-14 35.83-14 35.83 12.5 34.5 101.5-98.5c0 0 13 21 42 52 0 0 10 12 37-8s4-35 4-35-26-27-42-58c0 0 45-49 79-78s-15-12-15-12-25 5-80.5 64.5z"/></g></svg>